<?xml version="1.0" encoding="UTF-8" standalone="no"?>
<!-- Created with Inkscape (http://www.inkscape.org/) -->
<svg
   xmlns:dc="http://purl.org/dc/elements/1.1/"
   xmlns:cc="http://web.resource.org/cc/"
   xmlns:rdf="http://www.w3.org/1999/02/22-rdf-syntax-ns#"
   xmlns:svg="http://www.w3.org/2000/svg"
   xmlns="http://www.w3.org/2000/svg"
   xmlns:xlink="http://www.w3.org/1999/xlink"
   xmlns:sodipodi="http://sodipodi.sourceforge.net/DTD/sodipodi-0.dtd"
   xmlns:inkscape="http://www.inkscape.org/namespaces/inkscape"
   width="744.09448819"
   height="1052.3622047"
   id="svg2"
   sodipodi:version="0.32"
   inkscape:version="0.46dev+devel"
   sodipodi:docname="resource_depthed.svg"
   inkscape:output_extension="org.inkscape.output.svg.inkscape">
  <defs
     id="defs4">
    <linearGradient
       id="linearGradient5962">
      <stop
         style="stop-color:#1fc71f;stop-opacity:1;"
         offset="0"
         id="stop5964" />
      <stop
         id="stop5970"
         offset="0.5"
         style="stop-color:#19d519;stop-opacity:1;" />
      <stop
         style="stop-color:#1fc71f;stop-opacity:1;"
         offset="1"
         id="stop5966" />
    </linearGradient>
    <linearGradient
       id="linearGradient4801">
      <stop
         style="stop-color:#63a4df;stop-opacity:1;"
         offset="0"
         id="stop4803" />
      <stop
         id="stop4809"
         offset="0.5"
         style="stop-color:#85b6e3;stop-opacity:1;" />
      <stop
         style="stop-color:#63a4df;stop-opacity:1;"
         offset="1"
         id="stop4805" />
    </linearGradient>
    <linearGradient
       id="linearGradient4340">
      <stop
         style="stop-color:#00ff00;stop-opacity:0.72164947;"
         offset="0"
         id="stop4342" />
      <stop
         style="stop-color:#00ff00;stop-opacity:0;"
         offset="1"
         id="stop4344" />
    </linearGradient>
    <linearGradient
       id="linearGradient3572">
      <stop
         id="stop3574"
         offset="0"
         style="stop-color:#3ac347;stop-opacity:1;" />
      <stop
         id="stop3576"
         offset="1"
         style="stop-color:#acd0f0;stop-opacity:0;" />
    </linearGradient>
    <linearGradient
       id="linearGradient3145">
      <stop
         style="stop-color:#acd0f0;stop-opacity:0.68041235;"
         offset="0"
         id="stop3147" />
      <stop
         style="stop-color:#acd0f0;stop-opacity:0;"
         offset="1"
         id="stop3149" />
    </linearGradient>
    <linearGradient
       inkscape:collect="always"
       xlink:href="#linearGradient3145"
       id="linearGradient3151"
       x1="299.23831"
       y1="346.64789"
       x2="299.15909"
       y2="303.79077"
       gradientUnits="userSpaceOnUse" />
    <linearGradient
       inkscape:collect="always"
       xlink:href="#linearGradient3145"
       id="linearGradient3155"
       gradientUnits="userSpaceOnUse"
       x1="288.84906"
       y1="303.79077"
       x2="288.76984"
       y2="346.64789" />
    <linearGradient
       inkscape:collect="always"
       xlink:href="#linearGradient3145"
       id="linearGradient3165"
       gradientUnits="userSpaceOnUse"
       x1="299.23831"
       y1="346.64789"
       x2="299.15909"
       y2="303.79077" />
    <linearGradient
       inkscape:collect="always"
       xlink:href="#linearGradient3145"
       id="linearGradient3167"
       gradientUnits="userSpaceOnUse"
       x1="288.84906"
       y1="303.79077"
       x2="288.76984"
       y2="346.64789" />
    <linearGradient
       inkscape:collect="always"
       xlink:href="#linearGradient3145"
       id="linearGradient3183"
       gradientUnits="userSpaceOnUse"
       x1="288.84906"
       y1="303.79077"
       x2="288.76984"
       y2="346.64789" />
    <linearGradient
       inkscape:collect="always"
       xlink:href="#linearGradient4340"
       id="linearGradient4346"
       x1="287.68878"
       y1="346.64789"
       x2="288.16891"
       y2="317.43393"
       gradientUnits="userSpaceOnUse" />
    <linearGradient
       inkscape:collect="always"
       xlink:href="#linearGradient4340"
       id="linearGradient4350"
       gradientUnits="userSpaceOnUse"
       x1="287.68878"
       y1="346.64789"
       x2="288.16891"
       y2="317.43393" />
    <linearGradient
       inkscape:collect="always"
       xlink:href="#linearGradient3145"
       id="linearGradient4364"
       gradientUnits="userSpaceOnUse"
       x1="288.84906"
       y1="303.79077"
       x2="288.76984"
       y2="346.64789" />
    <linearGradient
       inkscape:collect="always"
       xlink:href="#linearGradient4340"
       id="linearGradient4366"
       gradientUnits="userSpaceOnUse"
       x1="287.68878"
       y1="346.64789"
       x2="288.16891"
       y2="303.79077" />
    <linearGradient
       inkscape:collect="always"
       xlink:href="#linearGradient4340"
       id="linearGradient4368"
       gradientUnits="userSpaceOnUse"
       x1="287.68878"
       y1="346.64789"
       x2="288.16891"
       y2="303.79077" />
    <linearGradient
       inkscape:collect="always"
       xlink:href="#linearGradient3145"
       id="linearGradient4396"
       gradientUnits="userSpaceOnUse"
       x1="288.84906"
       y1="303.79077"
       x2="288.76984"
       y2="346.64789" />
    <linearGradient
       inkscape:collect="always"
       xlink:href="#linearGradient4340"
       id="linearGradient4398"
       gradientUnits="userSpaceOnUse"
       x1="287.68878"
       y1="346.64789"
       x2="288.16891"
       y2="303.79077" />
    <linearGradient
       inkscape:collect="always"
       xlink:href="#linearGradient4340"
       id="linearGradient4400"
       gradientUnits="userSpaceOnUse"
       x1="287.68878"
       y1="346.64789"
       x2="288.16891"
       y2="303.79077" />
    <linearGradient
       inkscape:collect="always"
       xlink:href="#linearGradient4801"
       id="linearGradient4807"
       x1="54.69288"
       y1="659.99297"
       x2="160.30712"
       y2="659.99297"
       gradientUnits="userSpaceOnUse" />
    <linearGradient
       inkscape:collect="always"
       xlink:href="#linearGradient4801"
       id="linearGradient5198"
       x1="194.28571"
       y1="325.21933"
       x2="354.28571"
       y2="325.21933"
       gradientUnits="userSpaceOnUse" />
    <linearGradient
       inkscape:collect="always"
       xlink:href="#linearGradient5962"
       id="linearGradient5968"
       x1="57.980703"
       y1="687.68389"
       x2="157.0193"
       y2="687.68389"
       gradientUnits="userSpaceOnUse" />
    <linearGradient
       inkscape:collect="always"
       xlink:href="#linearGradient4801"
       id="linearGradient2245"
       gradientUnits="userSpaceOnUse"
       x1="194.28571"
       y1="325.21933"
       x2="354.28571"
       y2="325.21933" />
    <linearGradient
       inkscape:collect="always"
       xlink:href="#linearGradient4801"
       id="linearGradient2247"
       gradientUnits="userSpaceOnUse"
       x1="54.69288"
       y1="659.99297"
       x2="160.30712"
       y2="659.99297"
       gradientTransform="matrix(7.3185752e-2,0,0,7.3185752e-2,652.2013,963.06099)" />
    <linearGradient
       inkscape:collect="always"
       xlink:href="#linearGradient3145"
       id="linearGradient2249"
       gradientUnits="userSpaceOnUse"
       x1="288.84906"
       y1="303.79077"
       x2="288.76984"
       y2="346.64789" />
    <linearGradient
       inkscape:collect="always"
       xlink:href="#linearGradient5962"
       id="linearGradient2251"
       gradientUnits="userSpaceOnUse"
       x1="57.980703"
       y1="687.68389"
       x2="157.0193"
       y2="687.68389"
       gradientTransform="matrix(7.3185752e-2,0,0,5.7790512e-2,652.2013,974.6793)" />
    <linearGradient
       inkscape:collect="always"
       xlink:href="#linearGradient4340"
       id="linearGradient2253"
       gradientUnits="userSpaceOnUse"
       x1="287.68878"
       y1="346.64789"
       x2="288.16891"
       y2="303.79077" />
    <linearGradient
       inkscape:collect="always"
       xlink:href="#linearGradient4340"
       id="linearGradient2255"
       gradientUnits="userSpaceOnUse"
       x1="287.68878"
       y1="346.64789"
       x2="288.16891"
       y2="303.79077" />
    <linearGradient
       inkscape:collect="always"
       xlink:href="#linearGradient4801"
       id="linearGradient2909"
       gradientUnits="userSpaceOnUse"
       x1="194.28571"
       y1="325.21933"
       x2="354.28571"
       y2="325.21933" />
    <linearGradient
       inkscape:collect="always"
       xlink:href="#linearGradient4801"
       id="linearGradient2911"
       gradientUnits="userSpaceOnUse"
       gradientTransform="matrix(7.3185752e-2,0,0,7.3185752e-2,653.09724,925.99825)"
       x1="54.69288"
       y1="659.99297"
       x2="160.30712"
       y2="659.99297" />
    <linearGradient
       inkscape:collect="always"
       xlink:href="#linearGradient3145"
       id="linearGradient2913"
       gradientUnits="userSpaceOnUse"
       x1="288.84906"
       y1="303.79077"
       x2="288.76984"
       y2="346.64789" />
    <linearGradient
       inkscape:collect="always"
       xlink:href="#linearGradient5962"
       id="linearGradient2915"
       gradientUnits="userSpaceOnUse"
       gradientTransform="matrix(7.3185752e-2,0,0,5.7790512e-2,653.09724,937.61656)"
       x1="57.980703"
       y1="687.68389"
       x2="157.0193"
       y2="687.68389" />
    <linearGradient
       inkscape:collect="always"
       xlink:href="#linearGradient4340"
       id="linearGradient2917"
       gradientUnits="userSpaceOnUse"
       x1="287.68878"
       y1="346.64789"
       x2="288.16891"
       y2="303.79077" />
    <linearGradient
       inkscape:collect="always"
       xlink:href="#linearGradient4340"
       id="linearGradient2919"
       gradientUnits="userSpaceOnUse"
       x1="287.68878"
       y1="346.64789"
       x2="288.16891"
       y2="303.79077" />
  </defs>
  <sodipodi:namedview
     id="base"
     pagecolor="#ffffff"
     bordercolor="#666666"
     borderopacity="1.0"
     gridtolerance="10000"
     guidetolerance="10"
     objecttolerance="10"
     inkscape:pageopacity="0.0"
     inkscape:pageshadow="2"
     inkscape:zoom="1"
     inkscape:cx="713.41921"
     inkscape:cy="56.38843"
     inkscape:document-units="px"
     inkscape:current-layer="layer1"
     inkscape:window-width="957"
     inkscape:window-height="690"
     inkscape:window-x="87"
     inkscape:window-y="50"
     showguides="true"
     inkscape:guide-bbox="true" />
  <metadata
     id="metadata7">
    <rdf:RDF>
      <cc:Work
         rdf:about="">
        <dc:format>image/svg+xml</dc:format>
        <dc:type
           rdf:resource="http://purl.org/dc/dcmitype/StillImage" />
      </cc:Work>
    </rdf:RDF>
  </metadata>
  <g
     inkscape:label="Layer 1"
     inkscape:groupmode="layer"
     id="layer1">
    <path
       sodipodi:type="arc"
       style="fill:#85b6e3;fill-opacity:1;stroke:none"
       id="path2176"
       sodipodi:cx="274.28571"
       sodipodi:cy="325.21933"
       sodipodi:rx="80"
       sodipodi:ry="21.428572"
       d="M 354.28571,325.21933 A 80,21.428572 0 1 1 194.28571,325.21933 A 80,21.428572 0 1 1 354.28571,325.21933 z"
       transform="translate(-156,-7)" />
    <path
       style="fill:#85b6e3;fill-opacity:1;stroke:none"
       d="M 37.9493,318.05234 C 52.09143,345.32646 184.42141,345.32646 198.56355,318.05234 L 198.56355,493.81888 C 191.49248,522.10315 43.00007,523.1133 37.9493,493.81888 L 37.9493,318.05234 z"
       id="rect2178"
       sodipodi:nodetypes="ccccc" />
    <path
       sodipodi:type="arc"
       style="fill:url(#linearGradient3151);fill-opacity:1;stroke:none"
       id="path2183"
       sodipodi:cx="274.28571"
       sodipodi:cy="325.21933"
       sodipodi:rx="80"
       sodipodi:ry="21.428572"
       d="M 354.28571,325.21933 A 80,21.428572 0 1 1 194.28571,325.21933 A 80,21.428572 0 1 1 354.28571,325.21933 z"
       transform="matrix(0.9528595,0,0,0.9528595,-143.60441,181.95086)" />
    <path
       sodipodi:type="arc"
       style="fill:url(#linearGradient3155);fill-opacity:1;stroke:none"
       id="path3153"
       sodipodi:cx="274.28571"
       sodipodi:cy="325.21933"
       sodipodi:rx="80"
       sodipodi:ry="21.428572"
       d="M 354.28571,325.21933 A 80,21.428572 0 1 1 194.28571,325.21933 A 80,21.428572 0 1 1 354.28571,325.21933 z"
       transform="matrix(0.9528595,0,0,0.9528595,-142.2912,10.689405)" />
    <path
       sodipodi:type="arc"
       style="fill:#85b6e3;fill-opacity:1;stroke:none"
       id="path3157"
       sodipodi:cx="274.28571"
       sodipodi:cy="325.21933"
       sodipodi:rx="80"
       sodipodi:ry="21.428572"
       d="M 354.28571,325.21933 A 80,21.428572 0 1 1 194.28571,325.21933 A 80,21.428572 0 1 1 354.28571,325.21933 z"
       transform="matrix(0.6762429,0,0,1,124.53604,-4.7394714)" />
    <path
       style="fill:#85b6e3;fill-opacity:1;stroke:none"
       d="M 255.69288,320.31287 C 265.2564,347.58699 354.7436,347.58699 364.30712,320.31287 L 364.30712,496.07941 C 359.52537,524.36368 259.10842,525.37383 255.69288,496.07941 L 255.69288,320.31287 z"
       id="path3159"
       sodipodi:nodetypes="ccccc" />
    <path
       sodipodi:type="arc"
       style="fill:url(#linearGradient3165);fill-opacity:1;stroke:none"
       id="path3161"
       sodipodi:cx="274.28571"
       sodipodi:cy="325.21933"
       sodipodi:rx="80"
       sodipodi:ry="21.428572"
       d="M 354.28571,325.21933 A 80,21.428572 0 1 1 194.28571,325.21933 A 80,21.428572 0 1 1 354.28571,325.21933 z"
       transform="matrix(0.6443645,0,0,0.9528595,132.91847,184.21139)" />
    <path
       sodipodi:type="arc"
       style="fill:url(#linearGradient3167);fill-opacity:1;stroke:none"
       id="path3163"
       sodipodi:cx="274.28571"
       sodipodi:cy="325.21933"
       sodipodi:rx="80"
       sodipodi:ry="21.428572"
       d="M 354.28571,325.21933 A 80,21.428572 0 1 1 194.28571,325.21933 A 80,21.428572 0 1 1 354.28571,325.21933 z"
       transform="matrix(0.6443645,0,0,0.9528595,133.80652,12.949934)" />
    <path
       sodipodi:type="arc"
       style="fill:#85b6e3;fill-opacity:1;stroke:none"
       id="path3171"
       sodipodi:cx="274.28571"
       sodipodi:cy="325.21933"
       sodipodi:rx="80"
       sodipodi:ry="21.428572"
       d="M 354.28571,325.21933 A 80,21.428572 0 1 1 194.28571,325.21933 A 80,21.428572 0 1 1 354.28571,325.21933 z"
       transform="translate(223.74357,0.26053)" />
    <path
       style="fill:#85b6e3;fill-opacity:1;stroke:none"
       d="M 417.69288,325.31287 C 431.83501,352.58699 564.16499,352.58699 578.30712,325.31287 L 578.30712,501.07941 C 571.23606,529.36368 422.74365,530.37383 417.69288,501.07941 L 417.69288,325.31287 z"
       id="path3173"
       sodipodi:nodetypes="ccccc" />
    <path
       sodipodi:type="arc"
       style="fill:url(#linearGradient3183);fill-opacity:1;stroke:none"
       id="path3177"
       sodipodi:cx="274.28571"
       sodipodi:cy="325.21933"
       sodipodi:rx="80"
       sodipodi:ry="21.428572"
       d="M 354.28571,325.21933 A 80,21.428572 0 1 1 194.28571,325.21933 A 80,21.428572 0 1 1 354.28571,325.21933 z"
       transform="matrix(0.9528595,0,0,0.9528595,237.45238,17.94993)" />
    <path
       style="fill:#19d519;fill-opacity:1;stroke:none"
       d="M 422.69288,402.34519 C 429.4178,377.98506 569.99503,379.66355 573.30712,402.34519 L 573.30712,500.47366 C 571.67631,520.26445 437.42918,528.8284 422.69288,500.47366 L 422.69288,402.34519 z"
       id="path3179"
       sodipodi:nodetypes="ccccc" />
    <path
       sodipodi:type="arc"
       style="fill:url(#linearGradient4346);fill-opacity:1;stroke:none"
       id="path3175"
       sodipodi:cx="274.28571"
       sodipodi:cy="325.21933"
       sodipodi:rx="80"
       sodipodi:ry="21.428572"
       d="M 354.28571,325.21933 A 80,21.428572 0 1 1 194.28571,325.21933 A 80,21.428572 0 1 1 354.28571,325.21933 z"
       transform="matrix(0.9528595,0,0,0.9528595,236.13916,189.21139)" />
    <path
       sodipodi:type="arc"
       style="fill:url(#linearGradient4350);fill-opacity:1;stroke:none"
       id="path4348"
       sodipodi:cx="274.28571"
       sodipodi:cy="325.21933"
       sodipodi:rx="80"
       sodipodi:ry="21.428572"
       d="M 354.28571,325.21933 A 80,21.428572 0 1 1 194.28571,325.21933 A 80,21.428572 0 1 1 354.28571,325.21933 z"
       transform="matrix(0.9528595,0,0,-0.9528595,236.81857,713.83767)" />
    <path
       sodipodi:type="arc"
       style="fill:url(#linearGradient5198);fill-opacity:1.0;stroke:none"
       id="path4352"
       sodipodi:cx="274.28571"
       sodipodi:cy="325.21933"
       sodipodi:rx="80"
       sodipodi:ry="21.428572"
       d="M 354.28571,325.21933 A 80,21.428572 0 1 1 194.28571,325.21933 A 80,21.428572 0 1 1 354.28571,325.21933 z"
       transform="matrix(0.6575646,0,0,1,-72.841322,236.26053)" />
    <path
       style="fill:url(#linearGradient4807);fill-opacity:1;stroke:none"
       d="M 54.69288,561.31287 C 63.992244,588.58699 151.00776,588.58699 160.30712,561.31287 L 160.30712,737.07941 C 155.65744,765.36368 58.014088,766.37383 54.69288,737.07941 L 54.69288,561.31287 z"
       id="path4354"
       sodipodi:nodetypes="ccccc" />
    <path
       sodipodi:type="arc"
       style="fill:url(#linearGradient4364);fill-opacity:1;stroke:none"
       id="path4356"
       sodipodi:cx="274.28571"
       sodipodi:cy="325.21933"
       sodipodi:rx="80"
       sodipodi:ry="21.428572"
       d="M 354.28571,325.21933 A 80,21.428572 0 1 1 194.28571,325.21933 A 80,21.428572 0 1 1 354.28571,325.21933 z"
       transform="matrix(0.6265667,0,0,0.9528595,-63.826894,253.94993)" />
    <path
       style="fill:url(#linearGradient5968);fill-opacity:1;stroke:none"
       d="M 57.980703,638.34519 C 62.402772,613.98506 154.84138,615.66355 157.0193,638.34519 L 157.0193,736.47366 C 155.94693,756.26445 67.670772,764.8284 57.980703,736.47366 L 57.980703,638.34519 z"
       id="path4358"
       sodipodi:nodetypes="ccccc" />
    <path
       sodipodi:type="arc"
       style="fill:url(#linearGradient4366);fill-opacity:1;stroke:none"
       id="path4360"
       sodipodi:cx="274.28571"
       sodipodi:cy="325.21933"
       sodipodi:rx="80"
       sodipodi:ry="21.428572"
       d="M 354.28571,325.21933 A 80,21.428572 0 1 1 194.28571,325.21933 A 80,21.428572 0 1 1 354.28571,325.21933 z"
       transform="matrix(0.6265667,0,0,0.9528595,-64.690421,425.21139)" />
    <path
       sodipodi:type="arc"
       style="fill:url(#linearGradient4368);fill-opacity:1;stroke:none"
       id="path4362"
       sodipodi:cx="274.28571"
       sodipodi:cy="325.21933"
       sodipodi:rx="80"
       sodipodi:ry="21.428572"
       d="M 354.28571,325.21933 A 80,21.428572 0 1 1 194.28571,325.21933 A 80,21.428572 0 1 1 354.28571,325.21933 z"
       transform="matrix(0.6265667,0,0,-0.9528595,-64.243665,949.83767)" />
    <g
       id="g4388"
       transform="matrix(0,1,-1,0,1001.3622,295.36218)">
      <path
         transform="matrix(0.6575646,0,0,1,181.65868,253.26053)"
         d="M 354.28571,325.21933 A 80,21.428572 0 1 1 194.28571,325.21933 A 80,21.428572 0 1 1 354.28571,325.21933 z"
         sodipodi:ry="21.428572"
         sodipodi:rx="80"
         sodipodi:cy="325.21933"
         sodipodi:cx="274.28571"
         id="path4370"
         style="fill:#85b6e3;fill-opacity:1;stroke:none"
         sodipodi:type="arc" />
      <path
         sodipodi:nodetypes="ccccc"
         id="path4372"
         d="M 309.19288,578.31287 C 318.49224,605.58699 405.50776,605.58699 414.80712,578.31287 L 414.80712,754.07941 C 410.15744,782.36368 312.51409,783.37383 309.19288,754.07941 L 309.19288,578.31287 z"
         style="fill:#85b6e3;fill-opacity:1;stroke:none" />
      <path
         transform="matrix(0.6265667,0,0,0.9528595,190.67311,270.94993)"
         d="M 354.28571,325.21933 A 80,21.428572 0 1 1 194.28571,325.21933 A 80,21.428572 0 1 1 354.28571,325.21933 z"
         sodipodi:ry="21.428572"
         sodipodi:rx="80"
         sodipodi:cy="325.21933"
         sodipodi:cx="274.28571"
         id="path4374"
         style="fill:url(#linearGradient4396);fill-opacity:1;stroke:none"
         sodipodi:type="arc" />
      <path
         sodipodi:nodetypes="ccccc"
         id="path4376"
         d="M 312.4807,655.34519 C 316.90277,630.98506 409.34138,632.66355 411.5193,655.34519 L 411.5193,753.47366 C 410.44693,773.26445 322.17077,781.8284 312.4807,753.47366 L 312.4807,655.34519 z"
         style="fill:#19d519;fill-opacity:1;stroke:none" />
      <path
         transform="matrix(0.6265667,0,0,0.9528595,189.80958,442.21139)"
         d="M 354.28571,325.21933 A 80,21.428572 0 1 1 194.28571,325.21933 A 80,21.428572 0 1 1 354.28571,325.21933 z"
         sodipodi:ry="21.428572"
         sodipodi:rx="80"
         sodipodi:cy="325.21933"
         sodipodi:cx="274.28571"
         id="path4378"
         style="fill:url(#linearGradient4398);fill-opacity:1;stroke:none"
         sodipodi:type="arc" />
      <path
         transform="matrix(0.6265667,0,0,-0.9528595,190.25633,966.8377)"
         d="M 354.28571,325.21933 A 80,21.428572 0 1 1 194.28571,325.21933 A 80,21.428572 0 1 1 354.28571,325.21933 z"
         sodipodi:ry="21.428572"
         sodipodi:rx="80"
         sodipodi:cy="325.21933"
         sodipodi:cx="274.28571"
         id="path4380"
         style="fill:url(#linearGradient4400);fill-opacity:1;stroke:none"
         sodipodi:type="arc" />
    </g>
    <rect
       style="fill:#c5c5ff;fill-opacity:1;stroke:#550000;stroke-width:1.17647064000000000;stroke-opacity:1"
       id="rect2261"
       width="18.82353"
       height="18.82353"
       x="491.08823"
       y="980.45044"
       inkscape:export-filename="C:\Documents and Settings\Administrator\My Documents\localhost\resplace\gen_php.png"
       inkscape:export-xdpi="90"
       inkscape:export-ydpi="90" />
    <rect
       style="fill:#ababff;fill-opacity:1;stroke:#8e8eff;stroke-width:1.17647064;stroke-opacity:1"
       id="rect2842"
       width="20"
       height="20"
       x="627.72876"
       y="1000.4711"
       inkscape:export-filename="C:\Documents and Settings\Administrator\My Documents\localhost\resplace\WebProjects\WebsiteCMS\Source\data\Themes\Bubble\RoyalBlue\Images\gen_php.png"
       inkscape:export-xdpi="90"
       inkscape:export-ydpi="90" />
    <path
       sodipodi:type="arc"
       style="fill:#0000ff;fill-opacity:1;stroke:#ffffff;stroke-opacity:1"
       id="path2844"
       sodipodi:cx="442.5"
       sodipodi:cy="990.36218"
       sodipodi:rx="12.5"
       sodipodi:ry="12"
       d="M 455,990.36218 A 12.5,12 0 1 1 430,990.36218 A 12.5,12 0 1 1 455,990.36218 z"
       transform="matrix(0.7686212,0,0,0.8006471,222.38513,216.93165)"
       inkscape:export-filename="C:\Documents and Settings\Administrator\My Documents\localhost\resplace\WebProjects\WebsiteCMS\Source\data\Themes\Bubble\RoyalBlue\Images\gen_php.png"
       inkscape:export-xdpi="90"
       inkscape:export-ydpi="90" />
    <text
       xml:space="preserve"
       style="font-size:12px;font-style:normal;font-weight:normal;fill:#800000;fill-opacity:1;stroke:none;stroke-width:1px;stroke-linecap:butt;stroke-linejoin:miter;stroke-opacity:1;font-family:'Bitstream Vera Sans'"
       x="630.95544"
       y="1014.4918"
       id="text2257"
       inkscape:export-filename="C:\Documents and Settings\Administrator\My Documents\localhost\resplace\WebProjects\WebsiteCMS\Source\data\Themes\Bubble\RoyalBlue\Images\gen_php.png"
       inkscape:export-xdpi="90"
       inkscape:export-ydpi="90"><tspan
         sodipodi:role="line"
         id="tspan2259"
         x="630.95544"
         y="1014.4918">?&gt;</tspan></text>
    <path
       sodipodi:type="arc"
       style="fill:#0000ff;fill-opacity:1;stroke:#ffffff;stroke-opacity:1"
       id="path2846"
       sodipodi:cx="442.5"
       sodipodi:cy="990.36218"
       sodipodi:rx="12.5"
       sodipodi:ry="12"
       d="M 455,990.36218 A 12.5,12 0 1 1 430,990.36218 A 12.5,12 0 1 1 455,990.36218 z"
       transform="matrix(0.7686212,0,0,0.8006471,249.63446,191.62251)"
       inkscape:export-filename="C:\Documents and Settings\Administrator\My Documents\localhost\resplace\WebProjects\WebsiteCMS\Source\data\Themes\Bubble\RoyalBlue\Images\gen_resdb.png"
       inkscape:export-xdpi="90"
       inkscape:export-ydpi="90" />
    <text
       xml:space="preserve"
       style="font-size:12px;font-style:normal;font-weight:normal;fill:#c5c5ff;fill-opacity:1;stroke:none;stroke-width:1px;stroke-linecap:butt;stroke-linejoin:miter;stroke-opacity:1;font-family:'Bitstream Vera Sans'"
       x="512.90326"
       y="1018.3441"
       id="text2848"
       inkscape:export-filename="C:\Documents and Settings\Administrator\My Documents\localhost\resplace\gen_php.png"
       inkscape:export-xdpi="90"
       inkscape:export-ydpi="90"><tspan
         sodipodi:role="line"
         id="tspan2850"
         x="512.90326"
         y="1018.3441">?&gt;</tspan></text>
    <rect
       style="fill:#ababff;fill-opacity:1;stroke:#8e8eff;stroke-width:1.17647064;stroke-opacity:1"
       id="rect3233"
       width="20"
       height="20"
       x="649.92712"
       y="1000.4711"
       inkscape:export-filename="C:\Documents and Settings\Administrator\My Documents\localhost\resplace\WebProjects\WebsiteCMS\Source\data\Themes\Bubble\RoyalBlue\Images\gen_resdb.png"
       inkscape:export-xdpi="90"
       inkscape:export-ydpi="90" />
    <path
       sodipodi:type="arc"
       style="fill:url(#linearGradient2245);fill-opacity:1;stroke:none"
       id="path2233"
       sodipodi:cx="274.28571"
       sodipodi:cy="325.21933"
       sodipodi:rx="80"
       sodipodi:ry="21.428572"
       d="M 354.28571,325.21933 A 80,21.428572 0 1 1 194.28571,325.21933 A 80,21.428572 0 1 1 354.28571,325.21933 z"
       transform="matrix(4.812436e-2,0,0,7.3185752e-2,646.87035,980.35189)"
       inkscape:export-filename="C:\Documents and Settings\Administrator\My Documents\localhost\resplace\WebProjects\WebsiteCMS\Source\data\Themes\Bubble\RoyalBlue\Images\gen_resdb.png"
       inkscape:export-xdpi="90"
       inkscape:export-ydpi="90" />
    <path
       style="fill:url(#linearGradient2247);fill-opacity:1;stroke:none"
       d="M 656.20404,1004.1412 C 656.88462,1006.1373 663.25292,1006.1373 663.9335,1004.1412 L 663.9335,1017.0048 C 663.59321,1019.0748 656.44711,1019.1487 656.20404,1017.0048 L 656.20404,1004.1412 z"
       id="path2235"
       sodipodi:nodetypes="ccccc"
       inkscape:export-filename="C:\Documents and Settings\Administrator\My Documents\localhost\resplace\WebProjects\WebsiteCMS\Source\data\Themes\Bubble\RoyalBlue\Images\gen_resdb.png"
       inkscape:export-xdpi="90"
       inkscape:export-ydpi="90" />
    <path
       sodipodi:type="arc"
       style="fill:url(#linearGradient2249);fill-opacity:1;stroke:none"
       id="path2237"
       sodipodi:cx="274.28571"
       sodipodi:cy="325.21933"
       sodipodi:rx="80"
       sodipodi:ry="21.428572"
       d="M 354.28571,325.21933 A 80,21.428572 0 1 1 194.28571,325.21933 A 80,21.428572 0 1 1 354.28571,325.21933 z"
       transform="matrix(4.5855755e-2,0,0,6.9735739e-2,647.53008,981.6465)"
       inkscape:export-filename="C:\Documents and Settings\Administrator\My Documents\localhost\resplace\WebProjects\WebsiteCMS\Source\data\Themes\Bubble\RoyalBlue\Images\gen_resdb.png"
       inkscape:export-xdpi="90"
       inkscape:export-ydpi="90" />
    <path
       style="fill:url(#linearGradient2251);fill-opacity:1;stroke:none"
       d="M 656.44466,1011.5697 C 656.76829,1010.1619 663.53348,1010.2589 663.69288,1011.5697 L 663.69288,1017.2406 C 663.61439,1018.3843 657.15384,1018.8792 656.44466,1017.2406 L 656.44466,1011.5697 z"
       id="path2239"
       sodipodi:nodetypes="ccccc"
       inkscape:export-filename="C:\Documents and Settings\Administrator\My Documents\localhost\resplace\WebProjects\WebsiteCMS\Source\data\Themes\Bubble\RoyalBlue\Images\gen_resdb.png"
       inkscape:export-xdpi="90"
       inkscape:export-ydpi="90" />
    <path
       sodipodi:type="arc"
       style="fill:url(#linearGradient2253);fill-opacity:1;stroke:none"
       id="path2241"
       sodipodi:cx="274.28571"
       sodipodi:cy="325.21933"
       sodipodi:rx="80"
       sodipodi:ry="21.428572"
       d="M 354.28571,325.21933 A 80,21.428572 0 1 1 194.28571,325.21933 A 80,21.428572 0 1 1 354.28571,325.21933 z"
       transform="matrix(4.5855755e-2,0,0,6.9735739e-2,647.46688,994.1804)"
       inkscape:export-filename="C:\Documents and Settings\Administrator\My Documents\localhost\resplace\WebProjects\WebsiteCMS\Source\data\Themes\Bubble\RoyalBlue\Images\gen_resdb.png"
       inkscape:export-xdpi="90"
       inkscape:export-ydpi="90" />
    <path
       sodipodi:type="arc"
       style="fill:url(#linearGradient2255);fill-opacity:1;stroke:none"
       id="path2243"
       sodipodi:cx="274.28571"
       sodipodi:cy="325.21933"
       sodipodi:rx="80"
       sodipodi:ry="21.428572"
       d="M 354.28571,325.21933 A 80,21.428572 0 1 1 194.28571,325.21933 A 80,21.428572 0 1 1 354.28571,325.21933 z"
       transform="matrix(4.5855755e-2,0,0,-6.9735739e-2,647.49958,1034.5757)"
       inkscape:export-filename="C:\Documents and Settings\Administrator\My Documents\localhost\resplace\WebProjects\WebsiteCMS\Source\data\Themes\Bubble\RoyalBlue\Images\gen_resdb.png"
       inkscape:export-xdpi="90"
       inkscape:export-ydpi="90" />
    <rect
       style="fill:#ababff;fill-opacity:1;stroke:#8e8eff;stroke-width:1.17647064;stroke-opacity:1"
       id="rect3241"
       width="66"
       height="20"
       x="672.47937"
       y="1000.3787"
       inkscape:export-filename="C:\Documents and Settings\Administrator\My Documents\localhost\resplace\WebProjects\WebsiteCMS\Source\data\Themes\Bubble\RoyalBlue\Images\html401.png"
       inkscape:export-xdpi="90"
       inkscape:export-ydpi="90" />
    <text
       xml:space="preserve"
       style="font-size:12px;font-style:normal;font-weight:normal;fill:#550000;fill-opacity:1;stroke:none;stroke-width:1px;stroke-linecap:butt;stroke-linejoin:miter;stroke-opacity:1;font-family:'Bitstream Vera Sans'"
       x="675.53717"
       y="1014.6761"
       id="text3243"
       inkscape:export-filename="C:\Documents and Settings\Administrator\My Documents\localhost\resplace\WebProjects\WebsiteCMS\Source\data\Themes\Bubble\RoyalBlue\Images\html401.png"
       inkscape:export-xdpi="90"
       inkscape:export-ydpi="90"><tspan
         sodipodi:role="line"
         id="tspan3245"
         x="675.53717"
         y="1014.6761">HTML</tspan></text>
    <text
       xml:space="preserve"
       style="font-size:12px;font-style:normal;font-weight:normal;fill:#000000;fill-opacity:1;stroke:none;stroke-width:1px;stroke-linecap:butt;stroke-linejoin:miter;stroke-opacity:1;font-family:'Bitstream Vera Sans'"
       x="712.0661"
       y="1014.6762"
       id="text3247"
       inkscape:export-filename="C:\Documents and Settings\Administrator\My Documents\localhost\resplace\WebProjects\WebsiteCMS\Source\data\Themes\Bubble\RoyalBlue\Images\html401.png"
       inkscape:export-xdpi="90"
       inkscape:export-ydpi="90"><tspan
         sodipodi:role="line"
         id="tspan3249"
         x="712.0661"
         y="1014.6762">4.01</tspan></text>
    <rect
       style="fill:#bfdd97;fill-opacity:1;stroke:#79ab3b;stroke-width:1.17647064000000000;stroke-opacity:1"
       id="rect2879"
       width="20"
       height="20"
       x="628.62469"
       y="963.40839"
       inkscape:export-filename="C:\Documents and Settings\Administrator\My Documents\localhost\resplace\WebProjects\WebsiteCMS\Source\data\Themes\zorpia\Default\Images\gen_php.png"
       inkscape:export-xdpi="90"
       inkscape:export-ydpi="90" />
    <text
       xml:space="preserve"
       style="font-size:12px;font-style:normal;font-weight:normal;fill:#800000;fill-opacity:1;stroke:none;stroke-width:1px;stroke-linecap:butt;stroke-linejoin:miter;stroke-opacity:1;font-family:'Bitstream Vera Sans'"
       x="631.85138"
       y="977.42908"
       id="text2881"
       inkscape:export-filename="C:\Documents and Settings\Administrator\My Documents\localhost\resplace\WebProjects\WebsiteCMS\Source\data\Themes\zorpia\Default\Images\gen_php.png"
       inkscape:export-xdpi="90"
       inkscape:export-ydpi="90"><tspan
         sodipodi:role="line"
         id="tspan2883"
         x="631.85138"
         y="977.42908">?&gt;</tspan></text>
    <rect
       style="fill:#bfdd97;fill-opacity:1;stroke:#79ab3b;stroke-width:1.17647064000000000;stroke-opacity:1"
       id="rect2885"
       width="20"
       height="20"
       x="650.82306"
       y="963.40839"
       inkscape:export-filename="C:\Documents and Settings\Administrator\My Documents\localhost\resplace\WebProjects\WebsiteCMS\Source\data\Themes\zorpia\Default\Images\gen_resdb.png"
       inkscape:export-xdpi="90"
       inkscape:export-ydpi="90" />
    <path
       sodipodi:type="arc"
       style="fill:url(#linearGradient2909);fill-opacity:1;stroke:none"
       id="path2887"
       sodipodi:cx="274.28571"
       sodipodi:cy="325.21933"
       sodipodi:rx="80"
       sodipodi:ry="21.428572"
       d="M 354.28571,325.21933 A 80,21.428572 0 1 1 194.28571,325.21933 A 80,21.428572 0 1 1 354.28571,325.21933 z"
       transform="matrix(4.812436e-2,0,0,7.3185752e-2,647.76629,943.28915)"
       inkscape:export-filename="C:\Documents and Settings\Administrator\My Documents\localhost\resplace\WebProjects\WebsiteCMS\Source\data\Themes\zorpia\Default\Images\gen_resdb.png"
       inkscape:export-xdpi="90"
       inkscape:export-ydpi="90" />
    <path
       style="fill:url(#linearGradient2911);fill-opacity:1;stroke:none"
       d="M 657.09998,967.07846 C 657.78056,969.07456 664.14886,969.07456 664.82944,967.07846 L 664.82944,979.94206 C 664.48915,982.01206 657.34305,982.08596 657.09998,979.94206 L 657.09998,967.07846 z"
       id="path2889"
       sodipodi:nodetypes="ccccc"
       inkscape:export-filename="C:\Documents and Settings\Administrator\My Documents\localhost\resplace\WebProjects\WebsiteCMS\Source\data\Themes\zorpia\Default\Images\gen_resdb.png"
       inkscape:export-xdpi="90"
       inkscape:export-ydpi="90" />
    <path
       sodipodi:type="arc"
       style="fill:url(#linearGradient2913);fill-opacity:1;stroke:none"
       id="path2891"
       sodipodi:cx="274.28571"
       sodipodi:cy="325.21933"
       sodipodi:rx="80"
       sodipodi:ry="21.428572"
       d="M 354.28571,325.21933 A 80,21.428572 0 1 1 194.28571,325.21933 A 80,21.428572 0 1 1 354.28571,325.21933 z"
       transform="matrix(4.5855755e-2,0,0,6.9735739e-2,648.42602,944.58376)"
       inkscape:export-filename="C:\Documents and Settings\Administrator\My Documents\localhost\resplace\WebProjects\WebsiteCMS\Source\data\Themes\zorpia\Default\Images\gen_resdb.png"
       inkscape:export-xdpi="90"
       inkscape:export-ydpi="90" />
    <path
       style="fill:url(#linearGradient2915);fill-opacity:1;stroke:none"
       d="M 657.3406,974.50696 C 657.66423,973.09916 664.42942,973.19616 664.58882,974.50696 L 664.58882,980.17786 C 664.51033,981.32156 658.04978,981.81646 657.3406,980.17786 L 657.3406,974.50696 z"
       id="path2893"
       sodipodi:nodetypes="ccccc"
       inkscape:export-filename="C:\Documents and Settings\Administrator\My Documents\localhost\resplace\WebProjects\WebsiteCMS\Source\data\Themes\zorpia\Default\Images\gen_resdb.png"
       inkscape:export-xdpi="90"
       inkscape:export-ydpi="90" />
    <path
       sodipodi:type="arc"
       style="fill:url(#linearGradient2917);fill-opacity:1;stroke:none"
       id="path2895"
       sodipodi:cx="274.28571"
       sodipodi:cy="325.21933"
       sodipodi:rx="80"
       sodipodi:ry="21.428572"
       d="M 354.28571,325.21933 A 80,21.428572 0 1 1 194.28571,325.21933 A 80,21.428572 0 1 1 354.28571,325.21933 z"
       transform="matrix(4.5855755e-2,0,0,6.9735739e-2,648.36282,957.11766)"
       inkscape:export-filename="C:\Documents and Settings\Administrator\My Documents\localhost\resplace\WebProjects\WebsiteCMS\Source\data\Themes\zorpia\Default\Images\gen_resdb.png"
       inkscape:export-xdpi="90"
       inkscape:export-ydpi="90" />
    <path
       sodipodi:type="arc"
       style="fill:url(#linearGradient2919);fill-opacity:1;stroke:none"
       id="path2897"
       sodipodi:cx="274.28571"
       sodipodi:cy="325.21933"
       sodipodi:rx="80"
       sodipodi:ry="21.428572"
       d="M 354.28571,325.21933 A 80,21.428572 0 1 1 194.28571,325.21933 A 80,21.428572 0 1 1 354.28571,325.21933 z"
       transform="matrix(4.5855755e-2,0,0,-6.9735739e-2,648.39552,997.51296)"
       inkscape:export-filename="C:\Documents and Settings\Administrator\My Documents\localhost\resplace\WebProjects\WebsiteCMS\Source\data\Themes\zorpia\Default\Images\gen_resdb.png"
       inkscape:export-xdpi="90"
       inkscape:export-ydpi="90" />
    <rect
       style="fill:#bfdd97;fill-opacity:1;stroke:#79ab3b;stroke-width:1.17647064000000000;stroke-opacity:1"
       id="rect2899"
       width="66"
       height="20"
       x="673.37531"
       y="963.31598"
       inkscape:export-filename="C:\Documents and Settings\Administrator\My Documents\localhost\resplace\WebProjects\WebsiteCMS\Source\data\Themes\zorpia\Default\Images\html401.png"
       inkscape:export-xdpi="90"
       inkscape:export-ydpi="90" />
    <text
       xml:space="preserve"
       style="font-size:12px;font-style:normal;font-weight:normal;fill:#550000;fill-opacity:1;stroke:none;stroke-width:1px;stroke-linecap:butt;stroke-linejoin:miter;stroke-opacity:1;font-family:'Bitstream Vera Sans'"
       x="676.43311"
       y="977.61334"
       id="text2901"
       inkscape:export-filename="C:\Documents and Settings\Administrator\My Documents\localhost\resplace\WebProjects\WebsiteCMS\Source\data\Themes\zorpia\Default\Images\html401.png"
       inkscape:export-xdpi="90"
       inkscape:export-ydpi="90"><tspan
         sodipodi:role="line"
         id="tspan2903"
         x="676.43311"
         y="977.61334">HTML</tspan></text>
    <text
       xml:space="preserve"
       style="font-size:12px;font-style:normal;font-weight:normal;fill:#000000;fill-opacity:1;stroke:none;stroke-width:1px;stroke-linecap:butt;stroke-linejoin:miter;stroke-opacity:1;font-family:'Bitstream Vera Sans'"
       x="712.96204"
       y="977.61346"
       id="text2905"
       inkscape:export-filename="C:\Documents and Settings\Administrator\My Documents\localhost\resplace\WebProjects\WebsiteCMS\Source\data\Themes\zorpia\Default\Images\html401.png"
       inkscape:export-xdpi="90"
       inkscape:export-ydpi="90"><tspan
         sodipodi:role="line"
         id="tspan2907"
         x="712.96204"
         y="977.61346">4.01</tspan></text>
  </g>
</svg>
