<?xml version="1.0" encoding="UTF-8" standalone="no"?>
<!-- Created with Inkscape (http://www.inkscape.org/) -->
<svg
   xmlns:dc="http://purl.org/dc/elements/1.1/"
   xmlns:cc="http://web.resource.org/cc/"
   xmlns:rdf="http://www.w3.org/1999/02/22-rdf-syntax-ns#"
   xmlns:svg="http://www.w3.org/2000/svg"
   xmlns="http://www.w3.org/2000/svg"
   xmlns:xlink="http://www.w3.org/1999/xlink"
   xmlns:sodipodi="http://sodipodi.sourceforge.net/DTD/sodipodi-0.dtd"
   xmlns:inkscape="http://www.inkscape.org/namespaces/inkscape"
   version="1.0"
   x="0.0000000"
   y="0.0000000"
   width="447.16986"
   height="120.66375"
   viewBox="0 0 225 223.83691"
   id="svg1"
   xml:space="preserve"
   sodipodi:version="0.32"
   inkscape:version="0.44+devel"
   sodipodi:docname="logo.svgz.svg"
   sodipodi:docbase="C:\xampp\htdocs\server_browser_files"
   inkscape:output_extension="org.inkscape.output.svg.inkscape"
   inkscape:export-filename="C:\xampp\htdocs\server_browser_files\logo_heading.png"
   inkscape:export-xdpi="90"
   inkscape:export-ydpi="90"
   sodipodi:modified="TRUE"><metadata
   id="metadata1415">
  <rdf:RDF>
    <cc:Work
   rdf:about="">
      <dc:format>image/svg+xml</dc:format>
      <dc:type
   rdf:resource="http://purl.org/dc/dcmitype/StillImage" />
    </cc:Work>
  </rdf:RDF>
</metadata>
<sodipodi:namedview
   id="base"
   pagecolor="#ffffff"
   bordercolor="#666666"
   borderopacity="1.0"
   inkscape:pageopacity="0.0"
   inkscape:pageshadow="2"
   inkscape:zoom="1"
   inkscape:cx="271.80205"
   inkscape:cy="20.2572"
   inkscape:window-width="801"
   inkscape:window-height="577"
   inkscape:window-x="72"
   inkscape:window-y="72"
   inkscape:current-layer="svg1" />
<defs
   id="defs300"><linearGradient
   id="linearGradient3864"><stop
     style="stop-color:#a0d5e2;stop-opacity:1;"
     offset="0"
     id="stop3866" /><stop
     style="stop-color:#d1e5ea;stop-opacity:1;"
     offset="1"
     id="stop3868" /></linearGradient>
			
		
				<linearGradient
   x1="217.86621"
   y1="217.28516"
   x2="7.1352701"
   y2="6.5542202"
   id="path1065_2_"
   gradientUnits="userSpaceOnUse">
					<stop
   style="stop-color:#3c5c82;stop-opacity:1.0000000;"
   offset="0.0000000"
   id="stop85" />



					<stop
   style="stop-color:#001b7b;stop-opacity:1.0000000;"
   offset="1.0000000"
   id="stop87" />



					<midPointStop
   offset="0"
   style="stop-color:#0053BD"
   id="midPointStop89" />



					<midPointStop
   offset="0.5"
   style="stop-color:#0053BD"
   id="midPointStop91" />



					<midPointStop
   offset="1"
   style="stop-color:#00008D"
   id="midPointStop93" />



				</linearGradient>



				
				<linearGradient
   x1="214.27441"
   y1="213.71484"
   x2="10.72779"
   y2="10.16822"
   id="XMLID_1_"
   gradientUnits="userSpaceOnUse">
					<stop
   style="stop-color:#0068c6;stop-opacity:1.0000000;"
   offset="0.0000000"
   id="stop100" />



					<stop
   style="stop-color:#3c5cb2;stop-opacity:1.0000000;"
   offset="1.0000000"
   id="stop102" />



					<midPointStop
   offset="0"
   style="stop-color:#0066CC"
   id="midPointStop104" />



					<midPointStop
   offset="0.5"
   style="stop-color:#0066CC"
   id="midPointStop106" />



					<midPointStop
   offset="1"
   style="stop-color:#0053BD"
   id="midPointStop108" />



				</linearGradient>



				
				
				<linearGradient
   x1="112.50049"
   y1="211.02246"
   x2="112.50048"
   y2="12.81396"
   id="path1067_2_"
   gradientUnits="userSpaceOnUse">
					<stop
   style="stop-color:#418ade;stop-opacity:1.0000000;"
   offset="0.0000000"
   id="stop117" />



					

					

					

					

					

					

					

					<stop
   style="stop-color:#a4cdec;stop-opacity:1.0000000;"
   offset="0.50000000"
   id="stop133" />



					

					

					

					

					

					

					

					<stop
   style="stop-color:#003399;stop-opacity:1.0000000;"
   offset="1.0000000"
   id="stop149" />



					<midPointStop
   offset="0"
   style="stop-color:#0099FF"
   id="midPointStop151" />



					<midPointStop
   offset="0.25"
   style="stop-color:#0099FF"
   id="midPointStop153" />



					<midPointStop
   offset="0.5"
   style="stop-color:#B0D9FF"
   id="midPointStop155" />



					<midPointStop
   offset="0.75"
   style="stop-color:#B0D9FF"
   id="midPointStop157" />



					<midPointStop
   offset="1"
   style="stop-color:#003399"
   id="midPointStop159" />



				</linearGradient>



				
				
					<radialGradient
   cx="-1.36621"
   cy="223.93457"
   r="299.15564"
   fx="-1.36621"
   fy="223.93457"
   id="XMLID_2_"
   gradientUnits="userSpaceOnUse">
					<stop
   style="stop-color:#ffffff;stop-opacity:1.0000000;"
   offset="0.0000000"
   id="stop166" />



					<stop
   style="stop-color:#418ade;stop-opacity:1.0000000;"
   offset="0.44999999"
   id="stop168" />



					<stop
   style="stop-color:#3c5cb2;stop-opacity:1.0000000;"
   offset="0.75000000"
   id="stop170" />



					<stop
   style="stop-color:#0068c6;stop-opacity:1.0000000;"
   offset="1.0000000"
   id="stop172" />



					<midPointStop
   offset="0"
   style="stop-color:#FFFFFF"
   id="midPointStop174" />



					<midPointStop
   offset="0.5"
   style="stop-color:#FFFFFF"
   id="midPointStop176" />



					<midPointStop
   offset="0.45"
   style="stop-color:#0083D7"
   id="midPointStop178" />



					<midPointStop
   offset="0.5"
   style="stop-color:#0083D7"
   id="midPointStop180" />



					<midPointStop
   offset="0.75"
   style="stop-color:#0053BD"
   id="midPointStop182" />



					<midPointStop
   offset="0.5"
   style="stop-color:#0053BD"
   id="midPointStop184" />



					<midPointStop
   offset="1"
   style="stop-color:#0066CC"
   id="midPointStop186" />



				</radialGradient>



				
				<linearGradient
   x1="112.49854"
   y1="6.1372099"
   x2="112.49853"
   y2="129.3468"
   id="path1082_2_"
   gradientUnits="userSpaceOnUse">
					<stop
   style="stop-color:#ffffff;stop-opacity:1.0000000;"
   offset="0.0000000"
   id="stop193" />



					<stop
   style="stop-color:#0093dd;stop-opacity:0.0000000;"
   offset="1.0000000"
   id="stop195" />



					<midPointStop
   offset="0"
   style="stop-color:#FFFFFF"
   id="midPointStop197" />



					<midPointStop
   offset="0.5"
   style="stop-color:#FFFFFF"
   id="midPointStop199" />



					<midPointStop
   offset="1"
   style="stop-color:#000000"
   id="midPointStop201" />



				</linearGradient>



				
				
			
					<linearGradient
   x1="87.310547"
   y1="141.6543"
   x2="193.3839"
   y2="35.58094"
   id="XMLID_3_"
   gradientUnits="userSpaceOnUse"
   gradientTransform="translate(-283.3068,-55.27937)">
						<stop
   style="stop-color:#001b7b;stop-opacity:1.0000000;"
   offset="0.0056200000"
   id="stop210" />



						

						

						

						

						

						

						<stop
   style="stop-color:#0093dd;stop-opacity:1.0000000;"
   offset="1.0000000"
   id="stop224" />



						<midPointStop
   offset="0.00562"
   style="stop-color:#003399"
   id="midPointStop226" />



						<midPointStop
   offset="0.25"
   style="stop-color:#003399"
   id="midPointStop228" />



						<midPointStop
   offset="1"
   style="stop-color:#57ADFF"
   id="midPointStop230" />



					</linearGradient>



					

					

					<linearGradient
   x1="94.524902"
   y1="133.65625"
   x2="184.72461"
   y2="43.456532"
   id="XMLID_4_"
   gradientUnits="userSpaceOnUse">
						<stop
   style="stop-color:#ffffff;stop-opacity:1.0000000;"
   offset="0.0000000"
   id="stop239" />



						<stop
   style="stop-color:#fcfeff;stop-opacity:1.0000000;"
   offset="0.31658000"
   id="stop241" />



						<stop
   style="stop-color:#f2faff;stop-opacity:1.0000000;"
   offset="0.57076001"
   id="stop243" />



						<stop
   style="stop-color:#e1f3ff;stop-opacity:1.0000000;"
   offset="0.80255997"
   id="stop245" />



						<stop
   style="stop-color:#ccebff;stop-opacity:1.0000000;"
   offset="1.0000000"
   id="stop247" />



						<midPointStop
   offset="0"
   style="stop-color:#FFFFFF"
   id="midPointStop249" />



						<midPointStop
   offset="0.75"
   style="stop-color:#FFFFFF"
   id="midPointStop251" />



						<midPointStop
   offset="1"
   style="stop-color:#CCEBFF"
   id="midPointStop253" />



					</linearGradient>



					

					<linearGradient
   x1="126.8584"
   y1="102.09082"
   x2="51.48325"
   y2="177.46597"
   id="XMLID_5_"
   gradientUnits="userSpaceOnUse"
   gradientTransform="translate(-214.2076,76.00913)">
						<stop
   style="stop-color:#63b5e8;stop-opacity:1.0000000;"
   offset="0.0000000"
   id="stop260" />



						<stop
   style="stop-color:#001b7b;stop-opacity:1.0000000;"
   offset="1.0000000"
   id="stop262" />



						<midPointStop
   offset="0"
   style="stop-color:#57ADFF"
   id="midPointStop264" />



						<midPointStop
   offset="0.5"
   style="stop-color:#57ADFF"
   id="midPointStop266" />



						<midPointStop
   offset="1"
   style="stop-color:#003399"
   id="midPointStop268" />



					</linearGradient>



					

					

					<linearGradient
   x1="116.01855"
   y1="112.93164"
   x2="56.763809"
   y2="172.18639"
   id="XMLID_6_"
   gradientUnits="userSpaceOnUse">
						<stop
   style="stop-color:#ffffff;stop-opacity:1.0000000;"
   offset="0.44999999"
   id="stop277" />



						

						

						

						<stop
   style="stop-color:#a4cdec;stop-opacity:1.0000000;"
   offset="1.0000000"
   id="stop285" />



						<midPointStop
   offset="0.45"
   style="stop-color:#FFFFFF"
   id="midPointStop287" />



						<midPointStop
   offset="0.75"
   style="stop-color:#FFFFFF"
   id="midPointStop289" />



						<midPointStop
   offset="1"
   style="stop-color:#D4EEFF"
   id="midPointStop291" />



					</linearGradient>



					

				<linearGradient
   x1="92.049637"
   y1="109.93223"
   x2="-35.710068"
   y2="216.77003"
   id="linearGradient3301"
   xlink:href="#XMLID_6_"
   gradientUnits="userSpaceOnUse"
   gradientTransform="translate(-165.8381,94.43559)" />

<linearGradient
   x1="103.71875"
   y1="107.75011"
   x2="223.05583"
   y2="-5.3456044"
   id="linearGradient3302"
   xlink:href="#XMLID_6_"
   gradientUnits="userSpaceOnUse"
   gradientTransform="translate(-214.2076,96.73889)" />

<filter
   inkscape:collect="always"
   id="filter3866"><feGaussianBlur
     inkscape:collect="always"
     stdDeviation="2.22222222"
     id="feGaussianBlur3868" /></filter><linearGradient
   inkscape:collect="always"
   xlink:href="#path1082_2_"
   id="linearGradient2023"
   gradientUnits="userSpaceOnUse"
   x1="112.49854"
   y1="6.1372099"
   x2="112.49853"
   y2="129.3468"
   gradientTransform="matrix(0.504865,0,0,0.504865,-259.4538,16)" /><radialGradient
   inkscape:collect="always"
   xlink:href="#XMLID_2_"
   id="radialGradient2026"
   gradientUnits="userSpaceOnUse"
   cx="-1.36621"
   cy="223.93457"
   fx="-1.36621"
   fy="223.93457"
   r="299.15564"
   gradientTransform="matrix(0.504865,0,0,0.504865,-259.4538,16)" /><linearGradient
   inkscape:collect="always"
   xlink:href="#path1067_2_"
   id="linearGradient2029"
   gradientUnits="userSpaceOnUse"
   x1="112.50049"
   y1="211.02246"
   x2="112.50048"
   y2="12.81396"
   gradientTransform="matrix(0.504865,0,0,0.504865,-259.4538,16)" /><linearGradient
   inkscape:collect="always"
   xlink:href="#XMLID_1_"
   id="linearGradient2033"
   gradientUnits="userSpaceOnUse"
   x1="214.27441"
   y1="213.71484"
   x2="10.72779"
   y2="10.16822"
   gradientTransform="matrix(0.504865,0,0,0.504865,-259.4538,16)" /><linearGradient
   inkscape:collect="always"
   xlink:href="#path1065_2_"
   id="linearGradient2036"
   gradientUnits="userSpaceOnUse"
   x1="217.86621"
   y1="217.28516"
   x2="7.1352701"
   y2="6.5542202"
   gradientTransform="matrix(0.504865,0,0,0.504865,-259.4538,16)" /><filter
   inkscape:collect="always"
   id="filter2963"><feGaussianBlur
     inkscape:collect="always"
     stdDeviation="0.55555556"
     id="feGaussianBlur2965" /></filter><linearGradient
   inkscape:collect="always"
   xlink:href="#linearGradient3864"
   id="linearGradient3870"
   x1="-137.46703"
   y1="65.844002"
   x2="173.43091"
   y2="65.844002"
   gradientUnits="userSpaceOnUse"
   gradientTransform="translate(0,8)" /><linearGradient
   inkscape:collect="always"
   xlink:href="#path1065_2_"
   id="linearGradient3900"
   gradientUnits="userSpaceOnUse"
   gradientTransform="matrix(0.504865,0,0,0.504865,-259.4538,16)"
   x1="217.86621"
   y1="217.28516"
   x2="7.1352701"
   y2="6.5542202" /><linearGradient
   inkscape:collect="always"
   xlink:href="#XMLID_1_"
   id="linearGradient3902"
   gradientUnits="userSpaceOnUse"
   gradientTransform="matrix(0.504865,0,0,0.504865,-259.4538,16)"
   x1="214.27441"
   y1="213.71484"
   x2="10.72779"
   y2="10.16822" /><linearGradient
   inkscape:collect="always"
   xlink:href="#path1067_2_"
   id="linearGradient3904"
   gradientUnits="userSpaceOnUse"
   gradientTransform="matrix(0.504865,0,0,0.504865,-259.4538,16)"
   x1="112.50049"
   y1="211.02246"
   x2="112.50048"
   y2="12.81396" /><radialGradient
   inkscape:collect="always"
   xlink:href="#XMLID_2_"
   id="radialGradient3906"
   gradientUnits="userSpaceOnUse"
   gradientTransform="matrix(0.504865,0,0,0.504865,-259.4538,16)"
   cx="-1.36621"
   cy="223.93457"
   fx="-1.36621"
   fy="223.93457"
   r="299.15564" /><linearGradient
   inkscape:collect="always"
   xlink:href="#path1082_2_"
   id="linearGradient3908"
   gradientUnits="userSpaceOnUse"
   gradientTransform="matrix(0.504865,0,0,0.504865,-259.4538,16)"
   x1="112.49854"
   y1="6.1372099"
   x2="112.49853"
   y2="129.3468" /><linearGradient
   inkscape:collect="always"
   xlink:href="#linearGradient3864"
   id="linearGradient3910"
   gradientUnits="userSpaceOnUse"
   gradientTransform="translate(0,8)"
   x1="-137.46703"
   y1="65.844002"
   x2="173.43091"
   y2="65.844002" /><linearGradient
   inkscape:collect="always"
   xlink:href="#linearGradient3864"
   id="linearGradient3914"
   gradientUnits="userSpaceOnUse"
   gradientTransform="translate(33.6337,135.3332)"
   x1="-137.46703"
   y1="65.844002"
   x2="173.43091"
   y2="65.844002" /><linearGradient
   inkscape:collect="always"
   xlink:href="#path1082_2_"
   id="linearGradient3917"
   gradientUnits="userSpaceOnUse"
   gradientTransform="matrix(0.504865,0,0,0.504865,-225.8201,143.3332)"
   x1="112.49854"
   y1="6.1372099"
   x2="112.49853"
   y2="129.3468" /><radialGradient
   inkscape:collect="always"
   xlink:href="#XMLID_2_"
   id="radialGradient3920"
   gradientUnits="userSpaceOnUse"
   gradientTransform="matrix(0.504865,0,0,0.504865,-225.8201,143.3332)"
   cx="-1.36621"
   cy="223.93457"
   fx="-1.36621"
   fy="223.93457"
   r="299.15564" /><linearGradient
   inkscape:collect="always"
   xlink:href="#path1067_2_"
   id="linearGradient3923"
   gradientUnits="userSpaceOnUse"
   gradientTransform="matrix(0.504865,0,0,0.504865,-225.8201,143.3332)"
   x1="112.50049"
   y1="211.02246"
   x2="112.50048"
   y2="12.81396" /><linearGradient
   inkscape:collect="always"
   xlink:href="#XMLID_1_"
   id="linearGradient3927"
   gradientUnits="userSpaceOnUse"
   gradientTransform="matrix(0.504865,0,0,0.504865,-225.8201,143.3332)"
   x1="214.27441"
   y1="213.71484"
   x2="10.72779"
   y2="10.16822" /><linearGradient
   inkscape:collect="always"
   xlink:href="#path1065_2_"
   id="linearGradient3930"
   gradientUnits="userSpaceOnUse"
   gradientTransform="matrix(0.504865,0,0,0.504865,-225.8201,143.3332)"
   x1="217.86621"
   y1="217.28516"
   x2="7.1352701"
   y2="6.5542202" /><linearGradient
   inkscape:collect="always"
   xlink:href="#path1065_2_"
   id="linearGradient3933"
   gradientUnits="userSpaceOnUse"
   gradientTransform="matrix(0.506035,0,0,0.500397,-552.8777,16.33329)"
   x1="217.86621"
   y1="217.28516"
   x2="7.1352701"
   y2="6.5542202" /><linearGradient
   inkscape:collect="always"
   xlink:href="#path1065_2_"
   id="linearGradient4896"
   gradientUnits="userSpaceOnUse"
   gradientTransform="matrix(0.506035,0,0,0.500397,-552.8777,16.33329)"
   x1="217.86621"
   y1="217.28516"
   x2="7.1352701"
   y2="6.5542202" /><linearGradient
   inkscape:collect="always"
   xlink:href="#path1065_2_"
   id="linearGradient4898"
   gradientUnits="userSpaceOnUse"
   gradientTransform="matrix(0.504865,0,0,0.504865,-259.4538,16)"
   x1="217.86621"
   y1="217.28516"
   x2="7.1352701"
   y2="6.5542202" /><linearGradient
   inkscape:collect="always"
   xlink:href="#XMLID_1_"
   id="linearGradient4900"
   gradientUnits="userSpaceOnUse"
   gradientTransform="matrix(0.504865,0,0,0.504865,-259.4538,16)"
   x1="214.27441"
   y1="213.71484"
   x2="10.72779"
   y2="10.16822" /><linearGradient
   inkscape:collect="always"
   xlink:href="#path1067_2_"
   id="linearGradient4902"
   gradientUnits="userSpaceOnUse"
   gradientTransform="matrix(0.504865,0,0,0.504865,-259.4538,16)"
   x1="112.50049"
   y1="211.02246"
   x2="112.50048"
   y2="12.81396" /><radialGradient
   inkscape:collect="always"
   xlink:href="#XMLID_2_"
   id="radialGradient4904"
   gradientUnits="userSpaceOnUse"
   gradientTransform="matrix(0.504865,0,0,0.504865,-259.4538,16)"
   cx="-1.36621"
   cy="223.93457"
   fx="-1.36621"
   fy="223.93457"
   r="299.15564" /><linearGradient
   inkscape:collect="always"
   xlink:href="#path1082_2_"
   id="linearGradient4906"
   gradientUnits="userSpaceOnUse"
   gradientTransform="matrix(0.504865,0,0,0.504865,-259.4538,16)"
   x1="112.49854"
   y1="6.1372099"
   x2="112.49853"
   y2="129.3468" /><linearGradient
   inkscape:collect="always"
   xlink:href="#linearGradient3864"
   id="linearGradient4908"
   gradientUnits="userSpaceOnUse"
   gradientTransform="translate(0,8)"
   x1="-137.46703"
   y1="65.844002"
   x2="173.43091"
   y2="65.844002" /></defs>




	

		































	
<text
   xml:space="preserve"
   style="font-size:72px;font-style:normal;font-weight:normal;fill:black;fill-opacity:1;stroke:none;stroke-width:1px;stroke-linecap:butt;stroke-linejoin:miter;stroke-opacity:1;font-family:Arial Black"
   x="-293.90247"
   y="-150.39758"
   id="text1958"><tspan
     sodipodi:role="line"
     id="tspan1960"
     x="-293.90247"
     y="-150.39758"
     style="font-size:130px">B</tspan></text>

<g
   id="g4884"
   transform="matrix(1.800644,0,0,1.800644,170.0962,-9.45899)"
   inkscape:export-filename="C:\xampp\htdocs\server_browser_files\logo_heading.png"
   inkscape:export-xdpi="90"
   inkscape:export-ydpi="90"><path
     sodipodi:nodetypes="ccccccccccsssccsssscccsscccssssscsscsscccsccccssssssccssssccssssccsccscccccccsccccccccccccsssssscccsccccssccscccccccsccccscccccsccccccsssccccscccccccsccccsscssscccssssscsscssccssssssscsssscccssccsssssscccsccccssccccccccccccccccscccccssssssscccsssccc"
     id="path3884"
     d="M -233.03797,8.3437521 C -239.52278,8.3437521 -244.8152,13.577938 -244.8152,19.98977 L -258.8152,116.69773 C -258.8152,123.11006 -253.52278,128.34376 -247.03797,128.34375 L -156.76677,128.34375 C -150.2822,128.34375 -144.95822,123.11004 -144.95822,116.69773 L -130.95822,19.98977 C -130.95822,13.577938 -136.2822,8.3437521 -142.76677,8.3437521 L -233.03797,8.3437521 z M -97.8191,18.038442 C -103.08128,18.038492 -107.2324,18.683255 -110.2541,19.98977 C -113.27583,21.296374 -115.54595,23.09555 -117.05106,25.37915 C -118.55619,27.66283 -119.30629,30.090267 -119.30628,32.657911 C -119.30629,36.566255 -117.8311,39.799418 -114.88982,42.321628 C -111.97151,44.843878 -107.07863,46.839054 -100.23093,48.361451 C -96.0488,49.270386 -93.36134,50.250445 -92.21239,51.272956 C -91.06346,52.295506 -90.52101,53.446796 -90.52098,54.741982 C -90.52101,56.105369 -91.09998,57.301023 -92.30635,58.334902 C -93.51276,59.368801 -95.24564,59.883585 -97.47455,59.883575 C -100.46183,59.883585 -102.75698,58.87052 -104.36548,56.848177 C -105.3536,55.598445 -106.0171,53.782766 -106.3388,51.396849 L -121.18562,52.326053 C -120.74903,57.370543 -132.88786,69.505305 -129.57891,72.77738 C -126.26998,76.049465 -120.2879,77.702159 -111.69381,77.702159 C -110.77011,77.702159 -109.89535,77.689988 -109.0314,77.640212 L -109.0314,120.44552 L -82.094125,120.44552 C -80.945219,120.44551 -78.593702,120.21856 -75.077904,119.7641 C -72.435374,119.42326 -70.467805,118.87237 -69.157967,118.12251 C -67.043969,116.9182 -51.364306,107.29649 -50.14638,105.22871 C -48.928545,103.16094 -48.32973,100.81913 -48.32968,98.22871 C -48.32974,95.04753 -49.18624,92.43235 -50.898118,90.330478 C -52.610086,88.228634 -55.286043,86.733791 -58.916657,85.870301 C -56.526902,85.052304 -54.707455,83.934009 -53.466556,82.525168 C -51.605313,80.411976 -50.678911,77.890677 -50.678861,74.936672 C -50.678901,72.97464 -65.091054,79.187735 -65.900436,77.578265 C -64.991915,77.635306 -64.045828,77.671186 -63.050096,77.671186 C -57.466266,77.671176 -53.195181,76.86546 -50.207905,75.28623 C -47.220699,73.707 -30.648001,63.116579 -28.533913,59.48092 L -42.347098,58.211009 C -43.220317,59.30171 -44.031964,60.071319 -44.790247,60.503044 C -46.031146,61.184737 -47.358154,61.525178 -48.736871,61.525168 C -50.919889,61.525168 -52.705948,60.739067 -54.061682,59.171186 C -55.026824,58.080494 -55.594296,56.411307 -55.84706,54.18446 L -27.750852,54.18446 L -27.750852,52.635787 C -27.750882,47.864013 -28.54585,43.966492 -30.131356,40.98977 C -31.716942,38.013117 -34.020437,35.743521 -37.05361,34.17561 C -40.086843,32.607769 -44.218134,31.821668 -49.457287,31.821628 C -55.914356,31.821658 -60.983535,33.587838 -64.648659,37.087115 C -68.313783,40.586451 -70.130072,45.150391 -70.130082,50.808354 C -70.130072,54.784869 -69.231845,58.272837 -67.405032,61.215433 C -67.123882,61.6683 -66.831746,62.070142 -66.528004,62.485345 L -78.775069,62.485345 C -78.512853,62.150326 -78.291902,61.821145 -78.054653,61.463221 C -76.26236,58.759204 -75.329643,55.808747 -75.329603,52.604814 C -75.329663,49.8781 -76.021342,47.406299 -77.36556,45.202159 C -78.709868,42.998068 -80.865231,41.146292 -83.817978,39.657911 C -86.77079,38.1696 -91.65218,36.683003 -98.47687,35.228708 C -101.23436,34.66067 -102.9724,34.06027 -103.70771,33.401274 C -104.46604,32.765065 -104.86666,32.059445 -104.86664,31.264106 C -104.86666,30.173444 -104.40763,29.237748 -103.48846,28.476495 C -102.56932,27.715322 -101.20058,27.330517 -99.38522,27.330478 C -97.17928,27.330507 -95.43805,27.85667 -94.1857,28.87915 C -92.93338,29.90173 -92.10189,31.52344 -91.71123,33.772956 L -77.021014,32.936672 C -77.664471,27.755919 -79.645572,23.974968 -83.034918,21.600389 C -86.42434,19.22592 -91.36207,18.038492 -97.8191,18.038442 z M 0.94048075,31.821628 C -1.0357283,31.821658 -2.6955353,32.311702 -4.0397833,33.27738 C -5.3840713,34.243147 -6.6912633,36.006196 -7.9550853,38.57384 L -7.9550853,32.657911 L -21.079178,32.657911 L -35.079178,76.865876 L -20.98409,76.865876 L -6.9840903,56.724283 C -6.9841203,50.929988 -6.2705203,46.974693 -4.8228433,44.861451 C -3.8117963,43.361771 -2.3699933,42.600419 -0.53167225,42.600389 C 0.43341875,42.600419 1.7291347,42.940859 3.3836297,43.622513 L 7.0170293,35.321628 L 7.112117,76.865876 L 19.578439,76.865876 L 49.114358,32.657911 L 34.956626,32.657911 L 27.595858,55.609239 L 20.516991,32.657911 L 5.8894223,32.657911 L 6.0147119,32.967646 C 4.2047177,32.22351 2.5219977,31.821658 0.94048075,31.821628 z M 72.136334,31.821628 C 65.679255,31.821658 60.641408,33.587838 56.976284,37.087115 C 53.311151,40.586451 51.463549,45.150391 51.463539,50.808354 C 51.463549,54.784869 52.361776,58.272837 54.188589,61.215433 C 56.015393,64.15804 44.330405,74.305903 47.110843,75.657911 C 49.891282,77.00992 53.694976,77.671186 58.543525,77.671186 C 64.127345,77.671176 68.429772,76.86546 71.417039,75.28623 C 74.404255,73.707 90.94562,63.116579 93.059708,59.48092 L 79.246523,58.211009 C 78.373294,59.30171 77.561667,60.071319 76.803374,60.503044 C 75.562495,61.184737 74.235457,61.525178 72.85675,61.525168 C 70.673753,61.525168 68.918996,60.739067 67.563261,59.171186 C 66.59814,58.080494 65.999325,56.411307 65.746561,54.18446 L 93.842769,54.18446 L 93.842769,52.635787 C 93.842729,47.864013 93.079083,43.966492 91.493587,40.98977 C 89.907992,38.013117 87.604506,35.743521 84.571333,34.17561 C 81.538091,32.607769 77.375487,31.821668 72.136334,31.821628 z M 122.5341,31.821628 C 120.55791,31.821658 118.89808,32.311702 117.55384,33.27738 C 116.20957,34.243147 114.90236,36.006196 113.63854,38.57384 L 113.63854,32.657911 L 100.51444,32.657911 L 86.514443,76.865876 L 100.60953,76.865876 L 114.60953,56.724283 C 114.60952,50.929988 115.3231,46.974693 116.77078,44.861451 C 117.78181,43.361771 119.22363,42.600419 121.06195,42.600389 C 122.02703,42.600419 123.32275,42.940859 124.97725,43.622513 L 129.33107,33.741982 C 126.8723,32.469553 124.60218,31.821668 122.5341,31.821628 z M -48.862161,40.029593 C -46.931979,40.029613 -45.378557,40.636246 -44.195121,41.795079 C -43.011745,42.953972 -42.278319,44.874871 -42.002552,47.556141 L -55.815738,47.556141 C -55.585956,45.397505 -55.06852,43.753057 -54.218294,42.662336 C -52.885543,40.912708 -51.091124,40.029622 -48.862161,40.029593 z M 72.73146,40.029593 C 74.661662,40.029613 76.215064,40.636246 77.3985,41.795079 C 78.581876,42.953972 79.315302,44.874871 79.591069,47.556141 L 65.777883,47.556141 C 66.007655,45.397505 66.525101,43.753057 67.375327,42.662336 C 68.708068,40.912708 70.502497,40.029622 72.73146,40.029593 z M -79.276228,72.613663 L -72.385296,72.613663 C -70.018504,72.613693 -68.358687,73.034615 -67.405032,73.852602 C -66.451447,74.670657 -65.964231,75.774482 -65.964201,77.228708 C -65.964231,78.796609 -66.451447,79.992283 -67.405032,80.821628 C -68.358687,81.651043 -70.043542,82.091569 -72.479263,82.09154 L -79.276228,82.09154 L -79.276228,72.613663 z M -18.980576,75.463221 C -20.956775,75.463251 -22.58528,75.922322 -23.929518,76.888 C -25.273785,77.853757 -26.61232,79.616815 -27.876142,82.18446 L -27.876142,76.268531 L -41.000235,76.268531 L -55.000235,120.44552 L -40.905147,120.44552 L -26.905147,100.30393 C -26.905157,94.50963 -26.160265,90.554349 -24.712578,88.441097 C -23.70154,86.941417 -22.291059,86.211038 -20.452729,86.211009 C -19.487648,86.211038 -18.16061,86.551479 -16.506105,87.233133 L -12.183611,77.352602 C -14.642376,76.080163 -16.912514,75.463251 -18.980576,75.463221 z M 9.3662105,75.463221 C 2.9550887,75.463251 -2.1506153,77.211838 -5.9191283,80.790655 C -9.6876613,84.36952 -11.557163,88.928327 -11.557163,94.44994 C -11.557173,100.38061 -9.3433853,105.19422 -4.8854883,108.8526 C -1.2548543,111.80655 -10.485067,121.2818 -4.6024668,121.2818 C 1.9924304,121.2818 21.168036,111.47952 24.90213,107.9234 C 28.636133,104.36728 30.47748,99.83122 30.47752,94.2641 C 30.47749,89.310554 28.977271,85.136562 25.967092,81.750832 C 22.221502,77.547145 16.696428,75.463251 9.3662105,75.463221 z M 120.78005,75.463221 C 116.64384,75.463251 113.34088,75.88106 110.88216,76.733133 C 108.42343,77.585284 106.48922,78.846939 105.08752,80.57384 C 103.6858,82.300801 102.98891,84.382653 102.98891,86.768531 C 102.9889,88.949934 103.63259,90.887346 104.9309,92.59154 C 106.22919,94.29577 107.82746,95.49968 109.72323,96.21543 C 111.61898,96.93121 115.00016,97.72868 119.8717,98.56941 C 123.13467,99.1375 125.1586,99.60791 125.91692,99.99419 C 126.97391,100.53956 127.48302,101.28644 127.48304,102.28623 C 127.48303,103.17244 127.09702,103.92553 126.29279,104.51632 C 125.25872,105.31164 123.79189,105.69332 121.90765,105.69331 C 120.1842,105.69333 118.80712,105.34463 117.77309,104.64021 C 116.73901,103.93581 115.93572,102.77627 115.36127,101.14021 L 101.42279,102.4411 C 102.22705,105.91768 90.035003,116.60819 92.872894,118.49419 C 95.710775,120.38018 100.5004,121.31278 107.18724,121.31278 C 111.92086,121.31278 115.65466,120.71751 118.40066,119.54729 C 121.14661,118.37707 137.17052,108.81621 138.44589,106.83933 C 139.72118,104.86245 140.35651,102.82807 140.35656,100.73756 C 140.35652,98.6698 139.74621,96.7654 138.53986,95.03844 C 137.33345,93.31153 135.58388,91.974529 133.30901,91.042867 C 131.03408,90.111265 127.57464,89.397379 122.90997,88.874725 C 119.83079,88.511181 117.8152,88.09026 116.89607,87.635787 C 115.9769,87.181355 115.51786,86.50874 115.51788,85.622513 C 115.51786,84.827244 115.89032,84.165978 116.61416,83.609239 C 117.33799,83.052559 118.47407,82.772985 120.05963,82.772956 C 121.62216,82.772985 122.96589,83.129928 124.0689,83.857026 C 124.87313,84.402407 125.47825,85.26899 125.82295,86.427823 L 139.10366,85.126938 C 138.18447,82.763797 137.01706,80.875903 135.62687,79.48977 C 134.23663,78.103705 132.50691,77.082394 130.42735,76.423398 C 128.34773,75.764471 125.14599,75.463251 120.78005,75.463221 z M 165.97829,75.463221 C 159.52121,75.463251 154.48336,77.198458 150.81824,80.697734 C 147.15311,84.19707 145.3055,88.761021 145.3055,94.41897 C 145.30551,98.39548 146.23506,101.85248 148.06187,104.79508 C 149.8887,107.73769 138.17235,117.88555 140.9528,119.23756 C 143.73324,120.58956 147.53693,121.2818 152.38548,121.2818 C 157.9693,121.2818 162.27172,120.47608 165.259,118.89685 C 168.24622,117.31763 184.78757,106.72721 186.90167,103.09154 L 173.08848,101.82163 C 172.21524,102.91234 171.40361,103.68194 170.64533,104.11366 C 169.40445,104.79536 168.10873,105.1358 166.73003,105.13579 C 164.54701,105.13579 162.76095,104.34968 161.40522,102.7818 C 160.44008,101.69112 159.84127,100.02192 159.58852,97.79508 L 187.71605,97.79508 L 187.71605,96.2464 C 187.716,91.474642 186.92104,87.577111 185.33555,84.600389 C 183.74997,81.623726 181.41514,79.354141 178.38197,77.78623 C 175.34873,76.218388 171.21744,75.463251 165.97829,75.463221 z M 33.20257,76.268531 L 32.765177,120.44552 L 45.294143,120.44552 L 66.498299,90.671186 L 59.890389,120.44552 L 72.356711,120.44552 L 99.856673,76.268531 L 86.356711,76.268531 L 80.468097,99.06499 L 72.73146,76.268531 L 60.108526,76.268531 L 52.653791,99.06499 L 46.765177,76.268531 L 33.20257,76.268531 z M 166.57342,83.640212 C 168.50361,83.640242 170.05702,84.246866 171.24046,85.405699 C 172.42384,86.564592 173.15725,88.485491 173.43303,91.166761 L 159.61984,91.166761 C 159.84961,89.008114 160.39837,87.363667 161.24861,86.272956 C 162.58134,84.523307 164.34445,83.640242 166.57342,83.640212 z M 9.5854674,84.972071 C 11.51565,84.9721 13.130624,85.73034 14.440442,87.264106 C 15.7502,88.797921 16.382402,91.159347 16.382432,94.29508 C 16.382392,97.65807 15.770046,100.11337 14.471764,101.63579 C 13.173423,103.15823 11.482293,103.89686 9.4601778,103.89685 C 7.4609957,103.89686 5.8325007,103.11899 4.5112363,101.57384 C 3.1899417,100.02869 2.5065817,97.64563 2.5066017,94.41897 C 2.5065817,91.237806 3.1784447,88.882595 4.5112363,87.326053 C 5.8439872,85.76957 7.5403291,84.9721 9.5854674,84.972071 z M -79.276228,91.600389 L -71.351656,91.600389 C -68.617204,91.600389 -66.711178,92.06568 -65.619654,92.96322 C -64.528201,93.86078 -63.990928,95.01723 -63.990888,96.49419 C -63.990918,98.08481 -64.548026,99.36095 -65.650976,100.30393 C -66.753987,101.24695 -68.631848,101.72872 -71.320334,101.72871 L -79.276228,101.72871 L -79.276228,91.600389 z "
     style="fill:url(#linearGradient4896)" /><g
     id="g3872"><path
       d="M -247.69103,15.999998 L -157.62137,15.999998 C -151.1518,15.999998 -145.8591,21.29295 -145.8591,27.762028 L -145.8591,117.24522 C -145.8591,123.71479 -151.1518,129.0075 -157.62137,129.0075 L -247.69103,129.0075 C -254.16085,129.0075 -259.4538,123.7148 -259.4538,117.24522 L -259.4538,27.762028 C -259.4538,21.29295 -254.16085,15.999998 -247.69103,15.999998 z "
       style="fill:url(#linearGradient4898)"
       id="path1065_1_" /><path
       d="M -248.28932,18.830005 L -157.02333,18.830005 C -152.42826,18.830005 -148.67925,22.580256 -148.67925,27.174334 L -148.67925,117.83193 C -148.67925,122.4265 -152.42826,126.22285 -157.02333,126.22285 L -248.28932,126.22285 C -252.88316,126.22285 -256.63365,122.4265 -256.63365,117.83193 L -256.63365,27.174334 C -256.63415,22.580256 -252.88316,18.830005 -248.28932,18.830005 z "
       style="fill:url(#linearGradient4900)"
       id="path111" /><path
       d="M -246.69609,20.70501 L -158.61681,20.70501 C -154.18296,20.70501 -150.56362,24.324116 -150.56362,28.757955 L -150.56362,116.24978 C -150.56362,120.68363 -154.18297,124.34834 -158.61681,124.34834 L -246.69609,124.34834 C -251.12969,124.34834 -254.74855,120.68363 -254.74855,116.24978 L -254.74855,28.757955 C -254.74928,24.324112 -251.12969,20.70501 -246.69609,20.70501 z "
       style="fill:white"
       id="path113" /><path
       d="M -246.51539,22.46908 L -158.79726,22.46908 C -155.26961,22.46908 -152.37403,25.36466 -152.37403,28.938405 L -152.37403,116.1147 C -152.37403,119.64283 -155.26912,122.53793 -158.79726,122.53793 L -246.51539,122.53793 C -250.04378,122.53793 -252.93837,119.64283 -252.93837,116.1147 L -252.93837,28.938405 C -252.93837,25.36466 -250.04378,22.46908 -246.51539,22.46908 z "
       style="fill:url(#linearGradient4902)"
       id="path1067_1_" /><path
       d="M -246.51539,23.726063 C -249.36438,23.726063 -251.68188,26.064271 -251.68188,28.938405 L -251.68188,116.1147 C -251.68188,118.96294 -249.36438,121.28168 -246.51539,121.28168 L -158.79726,121.28168 C -155.94851,121.28168 -153.63027,118.96295 -153.63027,116.1147 L -153.63027,28.938405 C -153.63027,26.064271 -155.94851,23.726063 -158.79726,23.726063 L -246.51539,23.726063 z "
       style="fill:url(#radialGradient4904)"
       id="path189" /><path
       d="M -246.51539,25.140822 C -248.58391,25.140822 -250.26688,26.844006 -250.26688,28.938405 C -250.26688,28.938405 -250.26688,81.730604 -250.26688,85.744879 C -245.66639,81.436268 -230.59537,69.821159 -201.6906,69.821159 C -170.06157,69.821159 -156.72948,55.79463 -155.04725,53.862925 C -155.04725,53.228884 -155.04725,28.938894 -155.04725,28.938894 C -155.04725,26.844738 -156.72947,25.14156 -158.79824,25.14156 L -246.51539,25.14156 L -246.51539,25.140822 z "
       style="fill:url(#linearGradient4906)"
       id="path1082_1_" /><path
       style="font-size:72px;font-style:normal;font-weight:normal;fill:url(#linearGradient4908);fill-opacity:1;stroke:#304fb5;stroke-width:2.70876002;stroke-linecap:butt;stroke-linejoin:miter;stroke-miterlimit:4;stroke-dasharray:none;stroke-opacity:1;font-family:Arial Black"
       d="M -112.78345,25.780436 C -118.03346,25.780488 -122.17824,26.44304 -125.19295,27.761217 C -128.2077,29.079493 -130.46322,30.89168 -131.96485,33.195666 C -133.46649,35.499741 -134.21652,37.952612 -134.21651,40.543178 C -134.21652,44.486433 -132.74926,47.733061 -129.81478,50.277785 C -126.90323,52.822562 -122.03627,54.853428 -115.2044,56.389424 C -111.03195,57.30647 -108.35987,58.286635 -107.21357,59.318271 C -106.06731,60.349946 -105.50369,61.515981 -105.50366,62.822731 C -105.50369,64.198288 -106.09463,65.402594 -107.29821,66.445699 C -108.50184,67.488826 -110.22109,68.020177 -112.44485,68.020166 C -115.42522,68.020177 -117.71354,66.996282 -119.31833,64.955881 C -120.30416,63.694979 -120.96124,61.860926 -121.28219,59.453709 L -136.11265,60.384846 C -135.67707,65.474365 -133.8102,69.662362 -130.5089,72.963653 C -127.20761,76.264955 -121.2561,77.92407 -112.68188,77.92407 C -111.76032,77.92407 -110.88585,77.889636 -110.0239,77.839421 L -110.0239,121.04414 L -83.122529,121.04414 C -81.976279,121.04414 -79.655142,120.82547 -76.147471,120.36696 C -73.511056,120.02307 -71.545797,119.46439 -70.238989,118.70784 C -68.129872,117.49278 -66.459824,115.8506 -65.244712,113.76435 C -64.029703,111.67812 -63.416353,109.31819 -63.416299,106.70464 C -63.416353,103.49506 -64.281705,100.83445 -65.989621,98.713806 C -67.697635,96.593203 -70.358245,95.098623 -73.980463,94.227422 C -71.596235,93.40212 -69.784046,92.279821 -68.546013,90.858399 C -66.689082,88.72634 -65.752653,86.169601 -65.752604,83.189222 C -65.752632,81.209677 -66.164038,79.412469 -66.971546,77.788632 C -66.065136,77.846166 -65.120781,77.890211 -64.127348,77.890211 C -58.556431,77.890211 -54.291895,77.079522 -51.311527,75.486186 C -48.331225,73.892855 -45.785408,71.265044 -43.67621,67.596923 L -57.457027,66.327191 C -58.328235,67.427636 -59.138382,68.194058 -59.894911,68.629637 C -61.132928,69.317418 -62.447088,69.662362 -63.822613,69.662351 C -66.000576,69.662357 -67.769022,68.87407 -69.121625,67.292187 C -70.084524,66.191764 -70.680933,64.510782 -70.933108,62.264049 L -42.880512,62.264049 L -42.880512,60.689581 C -42.880555,55.875204 -43.668837,51.960558 -45.250677,48.957263 C -46.832592,45.954029 -49.131853,43.665696 -52.158015,42.083785 C -55.184242,40.50195 -59.323552,39.713658 -64.550592,39.713621 C -70.992733,39.713658 -76.029142,41.48211 -79.685789,45.012632 C -83.342442,48.543219 -85.171022,53.152694 -85.171028,58.861168 C -85.171028,62.873184 -84.267928,66.371821 -82.445339,69.340686 C -82.164841,69.7976 -81.868026,70.225373 -81.564991,70.644277 L -93.805201,70.644277 C -93.543594,70.306256 -93.296994,69.955754 -93.060292,69.594633 C -91.272137,66.866484 -90.3685,63.88826 -90.368461,60.655722 C -90.36851,57.904656 -91.041989,55.413518 -92.383102,53.189701 C -93.724301,50.965934 -95.87049,49.104545 -98.816407,47.602883 C -101.76239,46.101283 -106.6348,44.617641 -113.44371,43.15036 C -116.19482,42.577251 -117.94139,41.952969 -118.675,41.288087 C -119.43157,40.646203 -119.80931,39.923517 -119.80929,39.121079 C -119.80931,38.020683 -119.35503,37.095722 -118.43798,36.32767 C -117.52098,35.5597 -116.15214,35.17649 -114.34098,35.176447 C -112.14015,35.176489 -110.40995,35.68544 -109.16049,36.717054 C -107.91107,37.748751 -107.09543,39.407866 -106.70567,41.677471 L -92.027577,40.814054 C -92.669542,35.587035 -94.67306,31.782254 -98.054569,29.386473 C -101.43615,26.990787 -106.34135,25.780488 -112.78345,25.780436 z M -14.269234,39.713621 C -16.24087,39.713658 -17.888511,40.195276 -19.229651,41.169579 C -20.570823,42.143958 -21.879522,43.928809 -23.140423,46.519379 L -23.140423,40.543178 L -36.24405,40.543178 L -36.24405,77.060652 L -22.175427,77.060652 L -22.175427,64.820441 C -22.175444,58.974405 -21.452752,54.983221 -20.008419,52.851107 C -18.999709,51.338036 -17.576191,50.582547 -15.742122,50.58252 C -14.779266,50.582547 -13.482019,50.927492 -11.83135,51.615234 L -8.1914532,43.235009 L 5.8771694,77.060652 L 18.303606,77.060652 L 33.811257,40.543178 L 19.674916,40.543178 L 12.344334,63.686148 L 5.267698,40.543178 L -9.3088169,40.543178 L -9.1903084,40.847914 C -10.99612,40.097121 -12.69137,39.713647 -14.269234,39.713621 z M 56.784928,39.713621 C 50.342787,39.713658 45.289449,41.48211 41.632801,45.012632 C 37.976149,48.543219 36.147568,53.152694 36.147563,58.861168 C 36.147563,62.873184 37.050664,66.371821 38.873252,69.340686 C 40.695836,72.309568 43.006582,74.477633 45.78059,75.84171 C 48.554589,77.205788 52.353906,77.890211 57.191242,77.890211 C 62.762159,77.890211 67.043627,77.079522 70.02399,75.486186 C 73.004294,73.892855 75.550113,71.265044 77.659308,67.596923 L 63.861566,66.327191 C 62.990357,67.427636 62.180214,68.194058 61.423677,68.629637 C 60.185666,69.317418 58.871502,69.662362 57.495978,69.662351 C 55.318016,69.662357 53.549569,68.87407 52.196966,67.292187 C 51.234067,66.191764 50.637658,64.510782 50.385482,62.264049 L 78.438079,62.264049 L 78.438079,60.689581 C 78.438037,55.875204 77.649754,51.960558 76.067916,48.957263 C 74.485995,45.954029 72.186734,43.665696 69.160572,42.083785 C 66.134352,40.50195 62.011967,39.713658 56.784928,39.713621 z M 107.04935,39.713621 C 105.07772,39.713658 103.43008,40.195276 102.08894,41.169579 C 100.74777,42.143958 99.439072,43.928809 98.17817,46.519379 L 98.17817,40.543178 L 85.074543,40.543178 L 85.074543,77.060652 L 99.143164,77.060652 L 99.143164,64.820441 C 99.143148,58.974405 99.865842,54.983221 101.31017,52.851107 C 102.31888,51.338036 103.7424,50.582547 105.57647,50.58252 C 106.53932,50.582547 107.8535,50.927492 109.50417,51.615234 L 113.82125,41.643611 C 111.36818,40.359811 109.11265,39.713658 107.04935,39.713621 z M -63.958051,47.992268 C -62.032318,47.992295 -60.483064,48.58378 -59.302369,49.752962 C -58.121724,50.922198 -57.393561,52.85466 -57.118432,55.559867 L -70.899249,55.559867 C -70.670007,53.381948 -70.139181,51.7507 -69.290923,50.650239 C -67.961251,48.884989 -66.181856,47.9923 -63.958051,47.992268 z M 57.36054,47.992268 C 59.286273,47.992295 60.835529,48.58378 62.016224,49.752962 C 63.19687,50.922198 63.925027,52.85466 64.200155,55.559867 L 50.419342,55.559867 C 50.648585,53.381948 51.17941,51.7507 52.027669,50.650239 C 53.357339,48.884989 55.136734,47.9923 57.36054,47.992268 z M -94.296163,80.852917 L -87.422685,80.852917 C -85.061367,80.852955 -83.413714,81.263505 -82.462268,82.088789 C -81.510887,82.914153 -81.023272,84.058323 -81.023239,85.525528 C -81.023272,87.107433 -81.510887,88.311742 -82.462268,89.148494 C -83.413714,89.985311 -85.09417,90.418258 -87.524263,90.418226 L -94.296163,90.418226 L -94.296163,80.852917 z M -34.127831,83.714045 C -36.099467,83.714083 -37.747119,84.1957 -39.088248,85.170003 C -40.42942,86.144382 -41.738125,87.929233 -42.99902,90.519804 L -42.99902,84.526673 L -56.102646,84.526673 L -56.102646,121.04414 L -42.034025,121.04414 L -42.034025,108.80393 C -42.034041,102.9579 -41.311354,98.966717 -39.867017,96.834597 C -38.858307,95.321533 -37.434799,94.566044 -35.600719,94.566011 C -34.637863,94.566044 -33.323697,94.910985 -31.673017,95.598731 L -27.355931,85.627106 C -29.809011,84.343306 -32.064547,83.714083 -34.127831,83.714045 z M -5.8551475,83.714045 C -12.251435,83.714083 -17.332121,85.503874 -21.091923,89.114635 C -24.851742,92.725461 -26.72953,97.324528 -26.72953,102.89545 C -26.72953,108.87907 -24.506797,113.71321 -20.059208,117.40425 C -16.436962,120.38458 -11.690288,121.8737 -5.8212886,121.8737 C 0.75836,121.8737 5.9101128,120.07792 9.6355737,116.49004 C 13.360958,112.90217 15.222348,108.30911 15.222391,102.69229 C 15.222348,97.694514 13.722302,93.478659 10.719078,90.062701 C 6.9821537,85.821482 1.4581195,83.714083 -5.8551475,83.714045 z M 105.28867,83.714045 C 101.16202,83.714083 97.871652,84.141031 95.418621,85.000705 C 92.965557,85.860455 91.044033,87.152231 89.645575,88.894548 C 88.2471,90.636931 87.546283,92.717524 87.546283,95.124699 C 87.546283,97.325584 88.1979,99.279911 89.49321,100.99932 C 90.788503,102.71877 92.376012,103.95094 94.267395,104.67308 C 96.158752,105.39525 99.531119,106.17807 104.39139,107.02631 C 107.64681,107.59947 109.66181,108.07561 110.41838,108.46534 C 111.47293,109.01557 111.99282,109.79293 111.99284,110.80164 C 111.99282,111.69576 111.5932,112.44031 110.79083,113.03637 C 109.75915,113.83878 108.30284,114.23839 106.42296,114.23838 C 104.7035,114.23839 103.32374,113.88252 102.2921,113.17181 C 101.26042,112.46113 100.4612,111.28416 99.888076,109.63349 L 85.98875,110.93709 C 86.791143,114.44472 88.608796,117.16053 91.440128,119.06337 C 94.271444,120.9662 99.023585,121.90756 105.69497,121.90756 C 110.41765,121.90756 114.16282,121.32754 116.90247,120.14687 C 119.64206,118.9662 121.64012,117.36722 122.91254,115.37268 C 124.18487,113.37815 124.82555,111.33636 124.8256,109.22718 C 124.82555,107.14095 124.21767,105.21344 123.01411,103.47106 C 121.81048,101.72873 120.06936,100.39869 117.79975,99.45871 C 115.53007,98.518785 112.0757,97.785157 107.42181,97.257841 C 104.34975,96.891056 102.34569,96.480509 101.42868,96.021976 C 100.51164,95.563484 100.05735,94.884535 100.05737,93.990402 C 100.05735,93.18803 100.4187,92.503614 101.14087,91.941903 C 101.86302,91.380253 103.01265,91.095448 104.59454,91.095416 C 106.15346,91.095448 107.48951,91.462258 108.58997,92.195849 C 109.39233,92.746096 109.97289,93.61692 110.3168,94.786102 L 123.58972,93.465581 C 122.67266,91.081335 121.50609,89.192615 120.11912,87.794114 C 118.73208,86.395679 117.01337,85.360852 114.93862,84.69597 C 112.86382,84.031159 109.64452,83.714083 105.28867,83.714045 z M 150.40645,83.714045 C 143.96431,83.714083 138.91096,85.465605 135.25432,88.996127 C 131.59767,92.526714 129.76908,97.153122 129.76908,102.86159 C 129.76908,106.8736 130.68911,110.35531 132.5117,113.32418 C 134.33429,116.29306 136.62809,118.46112 139.40211,119.8252 C 142.17611,121.18928 145.97542,121.8737 150.81276,121.8737 C 156.38368,121.8737 160.66514,121.07994 163.64551,119.48661 C 166.62582,117.89328 169.17162,115.26547 171.28083,111.59734 L 157.48308,110.32761 C 156.61187,111.42806 155.80172,112.19448 155.0452,112.63006 C 153.80718,113.31784 152.50994,113.66278 151.13443,113.66277 C 148.95646,113.66277 147.18801,112.87449 145.83541,111.29261 C 144.87251,110.19218 144.25917,108.5112 144.007,106.26447 L 172.07653,106.26447 L 172.07653,104.69001 C 172.07648,99.875626 171.28819,95.960985 169.70636,92.957688 C 168.12445,89.954453 165.80825,87.66612 162.78209,86.08421 C 159.75587,84.502375 155.63348,83.714083 150.40645,83.714045 z M 17.914222,84.526673 L 31.458022,121.04414 L 43.969107,121.04414 L 51.130392,99.069324 L 58.511763,121.04414 L 70.972055,121.04414 L 84.414279,84.526673 L 70.972055,84.526673 L 65.080503,107.5342 L 57.377469,84.526673 L 44.764806,84.526673 L 37.332645,107.5342 L 31.458022,84.526673 L 17.914222,84.526673 z M 150.99899,91.992693 C 152.92472,91.99272 154.47397,92.584205 155.65467,93.753387 C 156.83531,94.922627 157.56347,96.855085 157.83861,99.560295 L 144.04086,99.560295 C 144.2701,97.382376 144.81785,95.734192 145.66612,94.633737 C 146.99578,92.868484 148.77517,91.992725 150.99899,91.992693 z M -5.6519909,93.330143 C -3.7262573,93.33017 -2.0999453,94.102064 -0.79315234,95.64952 C 0.51358078,97.197025 1.1537364,99.562432 1.1537688,102.72616 C 1.1537364,106.11917 0.51905208,108.58845 -0.7762229,110.12446 C -2.0715519,111.66049 -3.736134,112.42691 -5.7535692,112.4269 C -7.7481273,112.42691 -9.395779,111.63262 -10.713986,110.07367 C -12.032231,108.51473 -12.694784,106.11706 -12.694767,102.86159 C -12.694784,99.652018 -12.026765,97.253817 -10.697057,95.683379 C -9.3673856,94.112999 -7.6924023,93.33017 -5.6519909,93.330143 z M -94.296163,100.00047 L -86.38997,100.00047 C -83.661843,100.00048 -81.756717,100.46623 -80.667715,101.37178 C -79.578777,102.27735 -79.042497,103.47073 -79.042459,104.96088 C -79.042497,106.5657 -79.584249,107.8356 -80.684645,108.787 C -81.785111,109.73844 -83.673837,110.22604 -86.356111,110.22603 L -94.296163,110.22603 L -94.296163,100.00047 z "
       id="text1948" /><path
       style="font-size:72px;font-style:normal;font-weight:normal;fill:white;fill-opacity:1;stroke:#1a3587;stroke-width:2.83694887;stroke-linecap:round;stroke-linejoin:miter;stroke-miterlimit:4;stroke-dasharray:none;stroke-dashoffset:0;stroke-opacity:1;filter:url(#filter2963);font-family:Arial Black"
       d="M -222.1759,33.125742 C -227.67436,33.125794 -231.99756,33.819705 -235.15494,35.200261 C -238.31236,36.580924 -240.67463,38.478866 -242.24732,40.891889 C -243.82001,43.305004 -244.60553,45.873957 -244.60552,48.587113 C -244.60553,52.716973 -243.06886,56.099518 -239.99549,58.764667 C -236.94614,61.429873 -231.84888,63.574578 -224.6937,65.183264 C -220.32379,66.143713 -217.54299,67.170255 -216.34243,68.250712 C -215.14192,69.33121 -214.53391,70.552426 -214.53388,71.921015 C -214.53391,73.361663 -215.17056,74.622966 -216.43109,75.715434 C -217.69167,76.807927 -219.47454,77.364422 -221.80355,77.364411 C -224.92496,77.364422 -227.33933,76.292073 -229.02003,74.155112 C -230.05251,72.834547 -230.72297,70.913695 -231.0591,68.39256 L -246.5914,69.367761 C -246.13519,74.698133 -244.17999,79.084323 -240.72245,82.541843 C -237.26493,85.99938 -231.04952,87.737005 -222.06952,87.737005 C -216.95529,87.737005 -212.71796,86.997293 -209.35644,85.520639 C -208.70492,85.234431 -208.07256,84.918974 -207.47696,84.580899 L -207.47696,111.92199 L -179.32025,111.92199 C -178.11975,111.92199 -175.68876,111.67524 -172.01511,111.19503 C -169.25392,110.83487 -167.17792,110.26748 -165.80927,109.47512 C -163.60034,108.20257 -161.869,106.46493 -160.59638,104.27996 C -159.32388,102.095 -158.68149,99.641118 -158.68144,96.9039 C -158.68149,93.54243 -159.57008,90.755905 -161.35881,88.534897 C -163.14766,86.31394 -165.95191,84.748632 -169.74555,83.8362 C -167.24848,82.97185 -165.35054,81.796434 -164.05392,80.307746 C -162.10911,78.074789 -161.12835,75.397055 -161.12832,72.275635 C -161.12835,68.554027 -162.49899,65.417136 -165.22416,62.895974 C -167.94941,60.374907 -171.85408,59.119337 -176.9443,59.119286 L -202.99104,59.119286 C -204.21947,57.943307 -205.72886,56.899112 -207.53015,55.980912 C -210.61555,54.408249 -215.71855,52.854394 -222.84967,51.317676 C -225.73098,50.717446 -227.56022,50.063621 -228.32853,49.367275 C -229.12091,48.695014 -229.51653,47.938126 -229.5165,47.097716 C -229.51653,45.945245 -229.04075,44.976511 -228.0803,44.172112 C -227.1199,43.367797 -225.68629,42.966454 -223.78942,42.966408 C -221.48443,42.966454 -219.67236,43.499494 -218.36376,44.579923 C -217.05521,45.660442 -216.20098,47.398074 -215.79276,49.775085 L -200.42005,48.870808 C -201.09239,43.396428 -203.19073,39.393856 -206.73226,36.884699 C -210.27387,34.375639 -215.42894,33.125794 -222.1759,33.125742 z M -191.02266,69.811035 L -183.82391,69.811035 C -181.35083,69.811075 -179.60749,70.258785 -178.61101,71.123123 C -177.6146,71.987542 -177.12164,73.185863 -177.1216,74.722502 C -177.12164,76.379275 -177.6146,77.640566 -178.61101,78.516921 C -179.60749,79.393341 -181.38519,79.829045 -183.93029,79.829011 L -191.02266,79.829011 L -191.02266,69.811035 z M -191.02266,89.882448 L -182.74231,89.882448 C -179.88508,89.88247 -177.88981,90.352524 -176.74926,91.300922 C -175.60879,92.249359 -175.02939,93.499206 -175.02936,95.059879 C -175.02939,96.74064 -175.61452,98.088375 -176.767,99.084798 C -177.91953,100.08125 -179.89764,100.57421 -182.70685,100.5742 L -191.02266,100.5742 L -191.02266,89.882448 z "
       id="text1966" /></g></g>
<text
   xml:space="preserve"
   style="font-size:72px;font-style:normal;font-weight:normal;fill:white;fill-opacity:1;stroke:#304fb5;stroke-width:5;stroke-linecap:butt;stroke-linejoin:miter;stroke-miterlimit:4;stroke-dasharray:none;stroke-opacity:1;filter:url(#filter3866);font-family:Arial Black"
   x="-147.806"
   y="-232.33253"
   id="text1953"><tspan
     sodipodi:role="line"
     id="tspan1955"
     x="-147.806"
     y="-232.33253"
     style="font-size:130px;fill:white;fill-opacity:1;stroke:#304fb5;stroke-width:5;stroke-miterlimit:4;stroke-dasharray:none;stroke-opacity:1">Server</tspan></text>
<text
   xml:space="preserve"
   style="font-size:72px;font-style:normal;font-weight:normal;fill:white;fill-opacity:1;stroke:#304fb5;stroke-width:5;stroke-linecap:butt;stroke-linejoin:miter;stroke-miterlimit:4;stroke-dasharray:none;stroke-opacity:1;filter:url(#filter3866);font-family:Arial Black"
   x="-104.72925"
   y="-151.12749"
   id="text1957"><tspan
     sodipodi:role="line"
     id="tspan1959"
     x="-104.72925"
     y="-151.12749"
     style="font-size:130px;fill:white;fill-opacity:1;stroke:#304fb5;stroke-width:5;stroke-miterlimit:4;stroke-dasharray:none;stroke-opacity:1">Browse</tspan></text>
</svg>