<?xml version="1.0" encoding="UTF-8" standalone="no"?>
<!-- Created with Inkscape (http://www.inkscape.org/) -->
<svg
   xmlns:dc="http://purl.org/dc/elements/1.1/"
   xmlns:cc="http://web.resource.org/cc/"
   xmlns:rdf="http://www.w3.org/1999/02/22-rdf-syntax-ns#"
   xmlns:svg="http://www.w3.org/2000/svg"
   xmlns="http://www.w3.org/2000/svg"
   xmlns:xlink="http://www.w3.org/1999/xlink"
   xmlns:sodipodi="http://sodipodi.sourceforge.net/DTD/sodipodi-0.dtd"
   xmlns:inkscape="http://www.inkscape.org/namespaces/inkscape"
   width="20"
   height="20"
   id="svg2"
   sodipodi:version="0.32"
   inkscape:version="0.46dev+devel"
   sodipodi:docname="BarDesigns.svg"
   inkscape:output_extension="org.inkscape.output.svg.inkscape"
   version="1.0"
   inkscape:export-filename="C:\MyDocs\localhost\resplace\WebProjects\WebsiteCMS\Source\OpenWebMS\Core\Modules\PageRate\Green.png"
   inkscape:export-xdpi="90"
   inkscape:export-ydpi="90">
  <defs
     id="defs4">
    <linearGradient
       id="linearGradient3554">
      <stop
         style="stop-color:#267518;stop-opacity:1;"
         offset="0"
         id="stop3556" />
      <stop
         style="stop-color:#f2e7bd;stop-opacity:1;"
         offset="1"
         id="stop3558" />
    </linearGradient>
    <linearGradient
       id="linearGradient3488">
      <stop
         id="stop3490"
         offset="0"
         style="stop-color:#0411e0;stop-opacity:1;" />
      <stop
         id="stop3492"
         offset="1"
         style="stop-color:#f2e7bd;stop-opacity:1;" />
    </linearGradient>
    <linearGradient
       id="linearGradient3041">
      <stop
         id="stop3043"
         offset="0"
         style="stop-color:#ff591f;stop-opacity:1;" />
      <stop
         id="stop3045"
         offset="1"
         style="stop-color:#f2e7bd;stop-opacity:1;" />
    </linearGradient>
    <linearGradient
       id="linearGradient2884">
      <stop
         style="stop-color:#e0b104;stop-opacity:1;"
         offset="0"
         id="stop2886" />
      <stop
         style="stop-color:#f2e7bd;stop-opacity:1;"
         offset="1"
         id="stop2888" />
    </linearGradient>
    <linearGradient
       id="linearGradient2878">
      <stop
         id="stop2880"
         offset="0"
         style="stop-color:#c0c0c0;stop-opacity:1;" />
      <stop
         id="stop2882"
         offset="1"
         style="stop-color:#c0c0c0;stop-opacity:0;" />
    </linearGradient>
    <linearGradient
       inkscape:collect="always"
       id="linearGradient2842">
      <stop
         style="stop-color:#c0c0c0;stop-opacity:1;"
         offset="0"
         id="stop2844" />
      <stop
         style="stop-color:#c0c0c0;stop-opacity:0;"
         offset="1"
         id="stop2846" />
    </linearGradient>
    <linearGradient
       inkscape:collect="always"
       xlink:href="#linearGradient3041"
       id="linearGradient2958"
       gradientUnits="userSpaceOnUse"
       x1="280.39017"
       y1="548.67084"
       x2="323.64871"
       y2="589.85004" />
    <linearGradient
       inkscape:collect="always"
       xlink:href="#linearGradient2842"
       id="linearGradient2968"
       gradientUnits="userSpaceOnUse"
       x1="280.39017"
       y1="548.67084"
       x2="323.64871"
       y2="589.85004" />
    <linearGradient
       inkscape:collect="always"
       xlink:href="#linearGradient2842"
       id="linearGradient2990"
       gradientUnits="userSpaceOnUse"
       x1="280.39017"
       y1="548.67084"
       x2="323.64871"
       y2="589.85004" />
    <linearGradient
       inkscape:collect="always"
       xlink:href="#linearGradient3041"
       id="linearGradient3000"
       gradientUnits="userSpaceOnUse"
       x1="280.39017"
       y1="548.67084"
       x2="323.64871"
       y2="589.85004" />
    <linearGradient
       inkscape:collect="always"
       xlink:href="#linearGradient2842"
       id="linearGradient3030"
       gradientUnits="userSpaceOnUse"
       x1="280.39017"
       y1="548.67084"
       x2="323.64871"
       y2="589.85004" />
    <linearGradient
       inkscape:collect="always"
       xlink:href="#linearGradient3041"
       id="linearGradient3040"
       gradientUnits="userSpaceOnUse"
       x1="280.39017"
       y1="548.67084"
       x2="323.64871"
       y2="589.85004" />
    <linearGradient
       inkscape:collect="always"
       xlink:href="#linearGradient2884"
       id="linearGradient2434"
       gradientUnits="userSpaceOnUse"
       x1="280.39017"
       y1="548.67084"
       x2="323.64871"
       y2="589.85004" />
    <linearGradient
       inkscape:collect="always"
       xlink:href="#linearGradient2884"
       id="linearGradient2444"
       gradientUnits="userSpaceOnUse"
       x1="280.39017"
       y1="548.67084"
       x2="323.64871"
       y2="589.85004" />
    <linearGradient
       inkscape:collect="always"
       xlink:href="#linearGradient2884"
       id="linearGradient2454"
       gradientUnits="userSpaceOnUse"
       x1="280.39017"
       y1="548.67084"
       x2="323.64871"
       y2="589.85004" />
    <linearGradient
       inkscape:collect="always"
       xlink:href="#linearGradient3488"
       id="linearGradient3077"
       gradientUnits="userSpaceOnUse"
       x1="280.39017"
       y1="548.67084"
       x2="323.64871"
       y2="589.85004" />
    <linearGradient
       inkscape:collect="always"
       xlink:href="#linearGradient3488"
       id="linearGradient3087"
       gradientUnits="userSpaceOnUse"
       x1="280.39017"
       y1="548.67084"
       x2="323.64871"
       y2="589.85004" />
    <linearGradient
       inkscape:collect="always"
       xlink:href="#linearGradient3488"
       id="linearGradient3097"
       gradientUnits="userSpaceOnUse"
       x1="280.39017"
       y1="548.67084"
       x2="323.64871"
       y2="589.85004" />
    <linearGradient
       inkscape:collect="always"
       xlink:href="#linearGradient3554"
       id="linearGradient3524"
       gradientUnits="userSpaceOnUse"
       x1="280.39017"
       y1="548.67084"
       x2="323.64871"
       y2="589.85004" />
    <linearGradient
       inkscape:collect="always"
       xlink:href="#linearGradient3554"
       id="linearGradient3534"
       gradientUnits="userSpaceOnUse"
       x1="220.93648"
       y1="686.62085"
       x2="263.80191"
       y2="728.18445"
       gradientTransform="translate(59.458424,-137.95455)" />
    <linearGradient
       inkscape:collect="always"
       xlink:href="#linearGradient3554"
       id="linearGradient3544"
       gradientUnits="userSpaceOnUse"
       x1="280.39017"
       y1="548.67084"
       x2="323.64871"
       y2="589.85004" />
    <linearGradient
       inkscape:collect="always"
       xlink:href="#linearGradient2842"
       id="linearGradient2986"
       gradientUnits="userSpaceOnUse"
       x1="280.39017"
       y1="548.67084"
       x2="323.64871"
       y2="589.85004" />
    <linearGradient
       inkscape:collect="always"
       xlink:href="#linearGradient3041"
       id="linearGradient2988"
       gradientUnits="userSpaceOnUse"
       x1="280.39017"
       y1="548.67084"
       x2="323.64871"
       y2="589.85004" />
    <linearGradient
       inkscape:collect="always"
       xlink:href="#linearGradient2884"
       id="linearGradient2991"
       gradientUnits="userSpaceOnUse"
       x1="280.39017"
       y1="548.67084"
       x2="323.64871"
       y2="589.85004" />
    <linearGradient
       inkscape:collect="always"
       xlink:href="#linearGradient3488"
       id="linearGradient2993"
       gradientUnits="userSpaceOnUse"
       x1="280.39017"
       y1="548.67084"
       x2="323.64871"
       y2="589.85004" />
    <linearGradient
       inkscape:collect="always"
       xlink:href="#linearGradient3554"
       id="linearGradient2995"
       gradientUnits="userSpaceOnUse"
       gradientTransform="translate(59.458424,-137.95455)"
       x1="220.93648"
       y1="686.62085"
       x2="263.80191"
       y2="728.18445" />
    <linearGradient
       inkscape:collect="always"
       xlink:href="#linearGradient2842"
       id="linearGradient2997"
       gradientUnits="userSpaceOnUse"
       x1="280.39017"
       y1="548.67084"
       x2="323.64871"
       y2="589.85004" />
    <linearGradient
       inkscape:collect="always"
       xlink:href="#linearGradient3041"
       id="linearGradient2999"
       gradientUnits="userSpaceOnUse"
       x1="280.39017"
       y1="548.67084"
       x2="323.64871"
       y2="589.85004" />
    <linearGradient
       inkscape:collect="always"
       xlink:href="#linearGradient2884"
       id="linearGradient3001"
       gradientUnits="userSpaceOnUse"
       x1="280.39017"
       y1="548.67084"
       x2="323.64871"
       y2="589.85004" />
    <linearGradient
       inkscape:collect="always"
       xlink:href="#linearGradient3488"
       id="linearGradient3003"
       gradientUnits="userSpaceOnUse"
       x1="280.39017"
       y1="548.67084"
       x2="323.64871"
       y2="589.85004" />
    <linearGradient
       inkscape:collect="always"
       xlink:href="#linearGradient3554"
       id="linearGradient3005"
       gradientUnits="userSpaceOnUse"
       x1="280.39017"
       y1="548.67084"
       x2="323.64871"
       y2="589.85004" />
    <linearGradient
       inkscape:collect="always"
       xlink:href="#linearGradient2842"
       id="linearGradient3007"
       gradientUnits="userSpaceOnUse"
       x1="280.39017"
       y1="548.67084"
       x2="323.64871"
       y2="589.85004" />
    <linearGradient
       inkscape:collect="always"
       xlink:href="#linearGradient3041"
       id="linearGradient3009"
       gradientUnits="userSpaceOnUse"
       x1="280.39017"
       y1="548.67084"
       x2="323.64871"
       y2="589.85004" />
    <linearGradient
       inkscape:collect="always"
       xlink:href="#linearGradient2884"
       id="linearGradient3011"
       gradientUnits="userSpaceOnUse"
       x1="280.39017"
       y1="548.67084"
       x2="323.64871"
       y2="589.85004" />
    <linearGradient
       inkscape:collect="always"
       xlink:href="#linearGradient3488"
       id="linearGradient3013"
       gradientUnits="userSpaceOnUse"
       x1="280.39017"
       y1="548.67084"
       x2="323.64871"
       y2="589.85004" />
    <linearGradient
       inkscape:collect="always"
       xlink:href="#linearGradient3554"
       id="linearGradient3015"
       gradientUnits="userSpaceOnUse"
       x1="280.39017"
       y1="548.67084"
       x2="323.64871"
       y2="589.85004" />
  </defs>
  <sodipodi:namedview
     id="base"
     pagecolor="#ffffff"
     bordercolor="#666666"
     borderopacity="1.0"
     gridtolerance="10000"
     guidetolerance="10"
     objecttolerance="10"
     inkscape:pageopacity="0.0"
     inkscape:pageshadow="2"
     inkscape:zoom="1.5420946"
     inkscape:cx="-21.773192"
     inkscape:cy="42.153948"
     inkscape:document-units="px"
     inkscape:current-layer="layer1"
     inkscape:window-width="1023"
     inkscape:window-height="613"
     inkscape:window-x="126"
     inkscape:window-y="252"
     width="20px"
     height="20px"
     showguides="true" />
  <metadata
     id="metadata7">
    <rdf:RDF>
      <cc:Work
         rdf:about="">
        <dc:format>image/svg+xml</dc:format>
        <dc:type
           rdf:resource="http://purl.org/dc/dcmitype/StillImage" />
      </cc:Work>
    </rdf:RDF>
  </metadata>
  <g
     inkscape:label="Layer 1"
     inkscape:groupmode="layer"
     id="layer1">
    <g
       id="g2979"
       transform="translate(21.894653,-2.4782559)">
      <path
         id="path46"
         transform="matrix(0.4148774,0,0,0.434555,-18.669721,-296.72621)"
         d="M 315,589.36218 L 301.96225,584.68429 L 288.8982,589.28822 L 289.31826,575.44304 L 280.90264,564.44108 L 294.2,560.56218 L 302.06291,549.15867 L 309.86108,560.60656 L 323.13624,564.56075 L 314.65841,575.51484 L 315,589.36218 z"
         inkscape:randomized="0"
         inkscape:rounded="0"
         inkscape:flatsided="false"
         sodipodi:arg2="1.5736298"
         sodipodi:arg1="0.94531129"
         sodipodi:r2="13.322162"
         sodipodi:r1="22.203604"
         sodipodi:cy="571.36218"
         sodipodi:cx="302"
         sodipodi:sides="5"
         style="fill:url(#linearGradient3007);fill-opacity:1;stroke:#000000;stroke-width:1.12631392;stroke-miterlimit:4;stroke-dasharray:none;stroke-opacity:1"
         sodipodi:type="star" />
      <path
         id="path56"
         transform="matrix(0.4148774,0,0,0.434555,-18.669721,-263.77734)"
         d="M 315,589.36218 L 301.96225,584.68429 L 288.8982,589.28822 L 289.31826,575.44304 L 280.90264,564.44108 L 294.2,560.56218 L 302.06291,549.15867 L 309.86108,560.60656 L 323.13624,564.56075 L 314.65841,575.51484 L 315,589.36218 z"
         inkscape:randomized="0"
         inkscape:rounded="0"
         inkscape:flatsided="false"
         sodipodi:arg2="1.5736298"
         sodipodi:arg1="0.94531129"
         sodipodi:r2="13.322162"
         sodipodi:r1="22.203604"
         sodipodi:cy="571.36218"
         sodipodi:cx="302"
         sodipodi:sides="5"
         style="fill:url(#linearGradient3009);fill-opacity:1;stroke:#000000;stroke-width:1.12631392;stroke-miterlimit:4;stroke-dasharray:none;stroke-opacity:1"
         sodipodi:type="star" />
      <path
         id="path2404"
         transform="matrix(0.4148774,0,0,0.434555,-18.669721,-230.82846)"
         d="M 315,589.36218 L 301.96225,584.68429 L 288.8982,589.28822 L 289.31826,575.44304 L 280.90264,564.44108 L 294.2,560.56218 L 302.06291,549.15867 L 309.86108,560.60656 L 323.13624,564.56075 L 314.65841,575.51484 L 315,589.36218 z"
         inkscape:randomized="0"
         inkscape:rounded="0"
         inkscape:flatsided="false"
         sodipodi:arg2="1.5736298"
         sodipodi:arg1="0.94531129"
         sodipodi:r2="13.322162"
         sodipodi:r1="22.203604"
         sodipodi:cy="571.36218"
         sodipodi:cx="302"
         sodipodi:sides="5"
         style="fill:url(#linearGradient3011);fill-opacity:1;stroke:#000000;stroke-width:1.12631392;stroke-miterlimit:4;stroke-dasharray:none;stroke-opacity:1"
         sodipodi:type="star" />
      <path
         id="path3047"
         transform="matrix(0.4148774,0,0,0.434555,-18.669721,-197.87959)"
         d="M 315,589.36218 L 301.96225,584.68429 L 288.8982,589.28822 L 289.31826,575.44304 L 280.90264,564.44108 L 294.2,560.56218 L 302.06291,549.15867 L 309.86108,560.60656 L 323.13624,564.56075 L 314.65841,575.51484 L 315,589.36218 z"
         inkscape:randomized="0"
         inkscape:rounded="0"
         inkscape:flatsided="false"
         sodipodi:arg2="1.5736298"
         sodipodi:arg1="0.94531129"
         sodipodi:r2="13.322162"
         sodipodi:r1="22.203604"
         sodipodi:cy="571.36218"
         sodipodi:cx="302"
         sodipodi:sides="5"
         style="fill:url(#linearGradient3013);fill-opacity:1;stroke:#000000;stroke-width:1.12631392;stroke-miterlimit:4;stroke-dasharray:none;stroke-opacity:1"
         sodipodi:type="star" />
      <path
         id="path3494"
         transform="matrix(0.4148774,0,0,0.434555,-18.669721,-164.93071)"
         d="M 315,589.36218 L 301.96225,584.68429 L 288.8982,589.28822 L 289.31826,575.44304 L 280.90264,564.44108 L 294.2,560.56218 L 302.06291,549.15867 L 309.86108,560.60656 L 323.13624,564.56075 L 314.65841,575.51484 L 315,589.36218 z"
         inkscape:randomized="0"
         inkscape:rounded="0"
         inkscape:flatsided="false"
         sodipodi:arg2="1.5736298"
         sodipodi:arg1="0.94531129"
         sodipodi:r2="13.322162"
         sodipodi:r1="22.203604"
         sodipodi:cy="571.36218"
         sodipodi:cx="302"
         sodipodi:sides="5"
         style="fill:url(#linearGradient3015);fill-opacity:1;stroke:#000000;stroke-width:1.12631392;stroke-miterlimit:4;stroke-dasharray:none;stroke-opacity:1"
         sodipodi:type="star" />
    </g>
    <g
       id="g2972"
       transform="translate(12.852786,-3.0734206)">
      <path
         id="path3010"
         transform="matrix(0.3947095,0,0,0.3935646,-36.529082,-273.6246)"
         d="M 315,589.36218 L 313.28371,590.48489 L 311.47116,591.44444 L 309.5778,592.23266 L 307.61979,592.84282 L 305.61383,593.26972 L 303.57704,593.50971 L 301.5268,593.56074 L 299.48059,593.42239 L 297.45588,593.09582 L 295.46994,592.58383 L 293.53971,591.89078 L 291.68166,591.0226 L 289.91164,589.98667 L 288.24476,588.79185 L 286.69523,587.44832 L 285.27627,585.96756 L 284,584.36218 L 282.8773,582.6459 L 281.91774,580.83334 L 281.12952,578.93998 L 280.51936,576.98197 L 280.09246,574.97601 L 279.85247,572.93923 L 279.80144,570.88898 L 279.9398,568.84278 L 280.26636,566.81807 L 280.77835,564.83212 L 281.4714,562.90189 L 282.33959,561.04384 L 283.37551,559.27382 L 284.57033,557.60694 L 285.91386,556.05741 L 287.39463,554.63846 L 289,553.36218 L 290.71629,552.23948 L 292.52884,551.27992 L 294.4222,550.4917 L 296.38021,549.88154 L 298.38617,549.45464 L 300.42296,549.21466 L 302.4732,549.16362 L 304.51941,549.30198 L 306.54412,549.62854 L 308.53006,550.14053 L 310.46029,550.83358 L 312.31834,551.70177 L 314.08836,552.73769 L 315.75524,553.93252 L 317.30477,555.27604 L 318.72373,556.75681 L 320,558.36218 L 321.1227,560.07847 L 322.08226,561.89102 L 322.87048,563.78438 L 323.48064,565.74239 L 323.90754,567.74835 L 324.14753,569.78514 L 324.19856,571.83538 L 324.0602,573.88159 L 323.73364,575.9063 L 323.22165,577.89224 L 322.5286,579.82247 L 321.66041,581.68052 L 320.62449,583.45054 L 319.42967,585.11743 L 318.08614,586.66696 L 316.60537,588.08591 L 315,589.36218 z"
         inkscape:randomized="0"
         inkscape:rounded="0"
         inkscape:flatsided="false"
         sodipodi:arg2="1.0377111"
         sodipodi:arg1="0.94531129"
         sodipodi:r2="22.203604"
         sodipodi:r1="22.203604"
         sodipodi:cy="571.36218"
         sodipodi:cx="302"
         sodipodi:sides="34"
         style="fill:url(#linearGradient2997);fill-opacity:1;stroke:#000000;stroke-width:1.20779181;stroke-miterlimit:4;stroke-dasharray:none;stroke-opacity:1"
         sodipodi:type="star" />
      <path
         id="path3020"
         transform="matrix(0.3947095,0,0,0.3935646,-36.529082,-240.67543)"
         d="M 315,589.36218 L 313.28371,590.48489 L 311.47116,591.44444 L 309.5778,592.23266 L 307.61979,592.84282 L 305.61383,593.26972 L 303.57704,593.50971 L 301.5268,593.56074 L 299.48059,593.42239 L 297.45588,593.09582 L 295.46994,592.58383 L 293.53971,591.89078 L 291.68166,591.0226 L 289.91164,589.98667 L 288.24476,588.79185 L 286.69523,587.44832 L 285.27627,585.96756 L 284,584.36218 L 282.8773,582.6459 L 281.91774,580.83334 L 281.12952,578.93998 L 280.51936,576.98197 L 280.09246,574.97601 L 279.85247,572.93923 L 279.80144,570.88898 L 279.9398,568.84278 L 280.26636,566.81807 L 280.77835,564.83212 L 281.4714,562.90189 L 282.33959,561.04384 L 283.37551,559.27382 L 284.57033,557.60694 L 285.91386,556.05741 L 287.39463,554.63846 L 289,553.36218 L 290.71629,552.23948 L 292.52884,551.27992 L 294.4222,550.4917 L 296.38021,549.88154 L 298.38617,549.45464 L 300.42296,549.21466 L 302.4732,549.16362 L 304.51941,549.30198 L 306.54412,549.62854 L 308.53006,550.14053 L 310.46029,550.83358 L 312.31834,551.70177 L 314.08836,552.73769 L 315.75524,553.93252 L 317.30477,555.27604 L 318.72373,556.75681 L 320,558.36218 L 321.1227,560.07847 L 322.08226,561.89102 L 322.87048,563.78438 L 323.48064,565.74239 L 323.90754,567.74835 L 324.14753,569.78514 L 324.19856,571.83538 L 324.0602,573.88159 L 323.73364,575.9063 L 323.22165,577.89224 L 322.5286,579.82247 L 321.66041,581.68052 L 320.62449,583.45054 L 319.42967,585.11743 L 318.08614,586.66696 L 316.60537,588.08591 L 315,589.36218 z"
         inkscape:randomized="0"
         inkscape:rounded="0"
         inkscape:flatsided="false"
         sodipodi:arg2="1.0377111"
         sodipodi:arg1="0.94531129"
         sodipodi:r2="22.203604"
         sodipodi:r1="22.203604"
         sodipodi:cy="571.36218"
         sodipodi:cx="302"
         sodipodi:sides="34"
         style="fill:url(#linearGradient2999);fill-opacity:1;stroke:#000000;stroke-width:1.20779181;stroke-miterlimit:4;stroke-dasharray:none;stroke-opacity:1"
         sodipodi:type="star" />
      <path
         id="path2424"
         transform="matrix(0.3947095,0,0,0.3935646,-36.529082,-207.72626)"
         d="M 315,589.36218 L 313.28371,590.48489 L 311.47116,591.44444 L 309.5778,592.23266 L 307.61979,592.84282 L 305.61383,593.26972 L 303.57704,593.50971 L 301.5268,593.56074 L 299.48059,593.42239 L 297.45588,593.09582 L 295.46994,592.58383 L 293.53971,591.89078 L 291.68166,591.0226 L 289.91164,589.98667 L 288.24476,588.79185 L 286.69523,587.44832 L 285.27627,585.96756 L 284,584.36218 L 282.8773,582.6459 L 281.91774,580.83334 L 281.12952,578.93998 L 280.51936,576.98197 L 280.09246,574.97601 L 279.85247,572.93923 L 279.80144,570.88898 L 279.9398,568.84278 L 280.26636,566.81807 L 280.77835,564.83212 L 281.4714,562.90189 L 282.33959,561.04384 L 283.37551,559.27382 L 284.57033,557.60694 L 285.91386,556.05741 L 287.39463,554.63846 L 289,553.36218 L 290.71629,552.23948 L 292.52884,551.27992 L 294.4222,550.4917 L 296.38021,549.88154 L 298.38617,549.45464 L 300.42296,549.21466 L 302.4732,549.16362 L 304.51941,549.30198 L 306.54412,549.62854 L 308.53006,550.14053 L 310.46029,550.83358 L 312.31834,551.70177 L 314.08836,552.73769 L 315.75524,553.93252 L 317.30477,555.27604 L 318.72373,556.75681 L 320,558.36218 L 321.1227,560.07847 L 322.08226,561.89102 L 322.87048,563.78438 L 323.48064,565.74239 L 323.90754,567.74835 L 324.14753,569.78514 L 324.19856,571.83538 L 324.0602,573.88159 L 323.73364,575.9063 L 323.22165,577.89224 L 322.5286,579.82247 L 321.66041,581.68052 L 320.62449,583.45054 L 319.42967,585.11743 L 318.08614,586.66696 L 316.60537,588.08591 L 315,589.36218 z"
         inkscape:randomized="0"
         inkscape:rounded="0"
         inkscape:flatsided="false"
         sodipodi:arg2="1.0377111"
         sodipodi:arg1="0.94531129"
         sodipodi:r2="22.203604"
         sodipodi:r1="22.203604"
         sodipodi:cy="571.36218"
         sodipodi:cx="302"
         sodipodi:sides="34"
         style="fill:url(#linearGradient3001);fill-opacity:1;stroke:#000000;stroke-width:1.20779181;stroke-miterlimit:4;stroke-dasharray:none;stroke-opacity:1"
         sodipodi:type="star" />
      <path
         id="path3067"
         transform="matrix(0.3947095,0,0,0.3935646,-36.529082,-174.77709)"
         d="M 315,589.36218 L 313.28371,590.48489 L 311.47116,591.44444 L 309.5778,592.23266 L 307.61979,592.84282 L 305.61383,593.26972 L 303.57704,593.50971 L 301.5268,593.56074 L 299.48059,593.42239 L 297.45588,593.09582 L 295.46994,592.58383 L 293.53971,591.89078 L 291.68166,591.0226 L 289.91164,589.98667 L 288.24476,588.79185 L 286.69523,587.44832 L 285.27627,585.96756 L 284,584.36218 L 282.8773,582.6459 L 281.91774,580.83334 L 281.12952,578.93998 L 280.51936,576.98197 L 280.09246,574.97601 L 279.85247,572.93923 L 279.80144,570.88898 L 279.9398,568.84278 L 280.26636,566.81807 L 280.77835,564.83212 L 281.4714,562.90189 L 282.33959,561.04384 L 283.37551,559.27382 L 284.57033,557.60694 L 285.91386,556.05741 L 287.39463,554.63846 L 289,553.36218 L 290.71629,552.23948 L 292.52884,551.27992 L 294.4222,550.4917 L 296.38021,549.88154 L 298.38617,549.45464 L 300.42296,549.21466 L 302.4732,549.16362 L 304.51941,549.30198 L 306.54412,549.62854 L 308.53006,550.14053 L 310.46029,550.83358 L 312.31834,551.70177 L 314.08836,552.73769 L 315.75524,553.93252 L 317.30477,555.27604 L 318.72373,556.75681 L 320,558.36218 L 321.1227,560.07847 L 322.08226,561.89102 L 322.87048,563.78438 L 323.48064,565.74239 L 323.90754,567.74835 L 324.14753,569.78514 L 324.19856,571.83538 L 324.0602,573.88159 L 323.73364,575.9063 L 323.22165,577.89224 L 322.5286,579.82247 L 321.66041,581.68052 L 320.62449,583.45054 L 319.42967,585.11743 L 318.08614,586.66696 L 316.60537,588.08591 L 315,589.36218 z"
         inkscape:randomized="0"
         inkscape:rounded="0"
         inkscape:flatsided="false"
         sodipodi:arg2="1.0377111"
         sodipodi:arg1="0.94531129"
         sodipodi:r2="22.203604"
         sodipodi:r1="22.203604"
         sodipodi:cy="571.36218"
         sodipodi:cx="302"
         sodipodi:sides="34"
         style="fill:url(#linearGradient3003);fill-opacity:1;stroke:#000000;stroke-width:1.20779181;stroke-miterlimit:4;stroke-dasharray:none;stroke-opacity:1"
         sodipodi:type="star" />
      <path
         id="path3514"
         transform="matrix(0.3947095,0,0,0.3935646,-36.529082,-141.82792)"
         d="M 315,589.36218 L 313.28371,590.48489 L 311.47116,591.44444 L 309.5778,592.23266 L 307.61979,592.84282 L 305.61383,593.26972 L 303.57704,593.50971 L 301.5268,593.56074 L 299.48059,593.42239 L 297.45588,593.09582 L 295.46994,592.58383 L 293.53971,591.89078 L 291.68166,591.0226 L 289.91164,589.98667 L 288.24476,588.79185 L 286.69523,587.44832 L 285.27627,585.96756 L 284,584.36218 L 282.8773,582.6459 L 281.91774,580.83334 L 281.12952,578.93998 L 280.51936,576.98197 L 280.09246,574.97601 L 279.85247,572.93923 L 279.80144,570.88898 L 279.9398,568.84278 L 280.26636,566.81807 L 280.77835,564.83212 L 281.4714,562.90189 L 282.33959,561.04384 L 283.37551,559.27382 L 284.57033,557.60694 L 285.91386,556.05741 L 287.39463,554.63846 L 289,553.36218 L 290.71629,552.23948 L 292.52884,551.27992 L 294.4222,550.4917 L 296.38021,549.88154 L 298.38617,549.45464 L 300.42296,549.21466 L 302.4732,549.16362 L 304.51941,549.30198 L 306.54412,549.62854 L 308.53006,550.14053 L 310.46029,550.83358 L 312.31834,551.70177 L 314.08836,552.73769 L 315.75524,553.93252 L 317.30477,555.27604 L 318.72373,556.75681 L 320,558.36218 L 321.1227,560.07847 L 322.08226,561.89102 L 322.87048,563.78438 L 323.48064,565.74239 L 323.90754,567.74835 L 324.14753,569.78514 L 324.19856,571.83538 L 324.0602,573.88159 L 323.73364,575.9063 L 323.22165,577.89224 L 322.5286,579.82247 L 321.66041,581.68052 L 320.62449,583.45054 L 319.42967,585.11743 L 318.08614,586.66696 L 316.60537,588.08591 L 315,589.36218 z"
         inkscape:randomized="0"
         inkscape:rounded="0"
         inkscape:flatsided="false"
         sodipodi:arg2="1.0377111"
         sodipodi:arg1="0.94531129"
         sodipodi:r2="22.203604"
         sodipodi:r1="22.203604"
         sodipodi:cy="571.36218"
         sodipodi:cx="302"
         sodipodi:sides="34"
         style="fill:url(#linearGradient3005);fill-opacity:1;stroke:#000000;stroke-width:1.20779181;stroke-miterlimit:4;stroke-dasharray:none;stroke-opacity:1"
         sodipodi:type="star" />
    </g>
    <g
       id="g2965"
       transform="translate(7.1331552,-5.0675802)">
      <path
         id="path2970"
         transform="matrix(0.4148771,0,0,0.4346137,-69.908134,-294.28474)"
         d="M 315,589.36218 L 301.97483,580.24359 L 288.8982,589.28822 L 293.5455,574.08275 L 280.90264,564.44108 L 296.8,564.16218 L 302.06291,549.15867 L 307.24072,564.19177 L 323.13624,564.56075 L 310.43894,574.13062 L 315,589.36218 z"
         inkscape:randomized="0"
         inkscape:rounded="0"
         inkscape:flatsided="false"
         sodipodi:arg2="1.5736298"
         sodipodi:arg1="0.94531129"
         sodipodi:r2="8.8814421"
         sodipodi:r1="22.203604"
         sodipodi:cy="571.36218"
         sodipodi:cx="302"
         sodipodi:sides="5"
         style="fill:url(#linearGradient2986);fill-opacity:1;stroke:#000000;stroke-width:1.12623835;stroke-miterlimit:4;stroke-dasharray:none;stroke-opacity:1"
         sodipodi:type="star" />
      <path
         id="path2980"
         transform="matrix(0.4148771,0,0,0.4346137,-69.908134,-261.28474)"
         d="M 315,589.36218 L 301.97483,580.24359 L 288.8982,589.28822 L 293.5455,574.08275 L 280.90264,564.44108 L 296.8,564.16218 L 302.06291,549.15867 L 307.24072,564.19177 L 323.13624,564.56075 L 310.43894,574.13062 L 315,589.36218 z"
         inkscape:randomized="0"
         inkscape:rounded="0"
         inkscape:flatsided="false"
         sodipodi:arg2="1.5736298"
         sodipodi:arg1="0.94531129"
         sodipodi:r2="8.8814421"
         sodipodi:r1="22.203604"
         sodipodi:cy="571.36218"
         sodipodi:cx="302"
         sodipodi:sides="5"
         style="fill:url(#linearGradient2988);fill-opacity:1;stroke:#000000;stroke-width:1.12623835;stroke-miterlimit:4;stroke-dasharray:none;stroke-opacity:1"
         sodipodi:type="star" />
      <path
         id="path2414"
         transform="matrix(0.4148771,0,0,0.4346137,-69.908134,-228.28474)"
         d="M 315,589.36218 L 301.97483,580.24359 L 288.8982,589.28822 L 293.5455,574.08275 L 280.90264,564.44108 L 296.8,564.16218 L 302.06291,549.15867 L 307.24072,564.19177 L 323.13624,564.56075 L 310.43894,574.13062 L 315,589.36218 z"
         inkscape:randomized="0"
         inkscape:rounded="0"
         inkscape:flatsided="false"
         sodipodi:arg2="1.5736298"
         sodipodi:arg1="0.94531129"
         sodipodi:r2="8.8814421"
         sodipodi:r1="22.203604"
         sodipodi:cy="571.36218"
         sodipodi:cx="302"
         sodipodi:sides="5"
         style="fill:url(#linearGradient2991);fill-opacity:1;stroke:#000000;stroke-width:1.12623835;stroke-miterlimit:4;stroke-dasharray:none;stroke-opacity:1"
         sodipodi:type="star" />
      <path
         id="path3057"
         transform="matrix(0.4148771,0,0,0.4346137,-69.908134,-195.28475)"
         d="M 315,589.36218 L 301.97483,580.24359 L 288.8982,589.28822 L 293.5455,574.08275 L 280.90264,564.44108 L 296.8,564.16218 L 302.06291,549.15867 L 307.24072,564.19177 L 323.13624,564.56075 L 310.43894,574.13062 L 315,589.36218 z"
         inkscape:randomized="0"
         inkscape:rounded="0"
         inkscape:flatsided="false"
         sodipodi:arg2="1.5736298"
         sodipodi:arg1="0.94531129"
         sodipodi:r2="8.8814421"
         sodipodi:r1="22.203604"
         sodipodi:cy="571.36218"
         sodipodi:cx="302"
         sodipodi:sides="5"
         style="fill:url(#linearGradient2993);fill-opacity:1;stroke:#000000;stroke-width:1.12623835;stroke-miterlimit:4;stroke-dasharray:none;stroke-opacity:1"
         sodipodi:type="star" />
      <path
         id="path3504"
         transform="matrix(0.4148774,0,0,0.4358266,-69.908224,-162.9752)"
         d="M 315,589.36218 L 301.97483,580.24359 L 288.8982,589.28822 L 293.5455,574.08275 L 280.90264,564.44108 L 296.8,564.16218 L 302.06291,549.15867 L 307.24072,564.19177 L 323.13624,564.56075 L 310.43894,574.13062 L 315,589.36218 z"
         inkscape:randomized="0"
         inkscape:rounded="0"
         inkscape:flatsided="false"
         sodipodi:arg2="1.5736298"
         sodipodi:arg1="0.94531129"
         sodipodi:r2="8.8814421"
         sodipodi:r1="22.203604"
         sodipodi:cy="571.36218"
         sodipodi:cx="302"
         sodipodi:sides="5"
         style="fill:url(#linearGradient2995);fill-opacity:1;stroke:#000000;stroke-width:1.12466967;stroke-miterlimit:4;stroke-dasharray:none;stroke-opacity:1"
         sodipodi:type="star" />
    </g>
  </g>
</svg>
